<?xml version="1.0" encoding="UTF-8" standalone="no"?>
<!-- Created with Inkscape (http://www.inkscape.org/) -->

<svg
   xmlns:dc="http://purl.org/dc/elements/1.1/"
   xmlns:cc="http://creativecommons.org/ns#"
   xmlns:rdf="http://www.w3.org/1999/02/22-rdf-syntax-ns#"
   xmlns:svg="http://www.w3.org/2000/svg"
   xmlns="http://www.w3.org/2000/svg"
   xmlns:sodipodi="http://sodipodi.sourceforge.net/DTD/sodipodi-0.dtd"
   xmlns:inkscape="http://www.inkscape.org/namespaces/inkscape"
   width="744.09448819"
   height="1052.3622047"
   id="svg2"
   version="1.1"
   inkscape:version="0.48.0 r9654"
   sodipodi:docname="acoustics_logo_a.svg">
  <defs
     id="defs4">
    <inkscape:perspective
       sodipodi:type="inkscape:persp3d"
       inkscape:vp_x="0 : 526.18109 : 1"
       inkscape:vp_y="0 : 1000 : 0"
       inkscape:vp_z="744.09448 : 526.18109 : 1"
       inkscape:persp3d-origin="372.04724 : 350.78739 : 1"
       id="perspective10" />
    <inkscape:perspective
       id="perspective2845"
       inkscape:persp3d-origin="0.5 : 0.33333333 : 1"
       inkscape:vp_z="1 : 0.5 : 1"
       inkscape:vp_y="0 : 1000 : 0"
       inkscape:vp_x="0 : 0.5 : 1"
       sodipodi:type="inkscape:persp3d" />
    <inkscape:perspective
       id="perspective3635"
       inkscape:persp3d-origin="0.5 : 0.33333333 : 1"
       inkscape:vp_z="1 : 0.5 : 1"
       inkscape:vp_y="0 : 1000 : 0"
       inkscape:vp_x="0 : 0.5 : 1"
       sodipodi:type="inkscape:persp3d" />
    <inkscape:perspective
       id="perspective3635-0"
       inkscape:persp3d-origin="0.5 : 0.33333333 : 1"
       inkscape:vp_z="1 : 0.5 : 1"
       inkscape:vp_y="0 : 1000 : 0"
       inkscape:vp_x="0 : 0.5 : 1"
       sodipodi:type="inkscape:persp3d" />
    <filter
       inkscape:collect="always"
       id="filter3768"
       x="-0.047298581"
       width="1.0945972"
       y="-0.15070467"
       height="1.3014093">
      <feGaussianBlur
         inkscape:collect="always"
         stdDeviation="7.1506533"
         id="feGaussianBlur3770" />
    </filter>
  </defs>
  <sodipodi:namedview
     id="base"
     pagecolor="#ffffff"
     bordercolor="#666666"
     borderopacity="1.0"
     inkscape:pageopacity="0.0"
     inkscape:pageshadow="2"
     inkscape:zoom="2.6743866"
     inkscape:cx="260.52059"
     inkscape:cy="873.98367"
     inkscape:document-units="px"
     inkscape:current-layer="layer1"
     showgrid="false"
     inkscape:window-width="1440"
     inkscape:window-height="871"
     inkscape:window-x="0"
     inkscape:window-y="1"
     inkscape:window-maximized="1" />
  <metadata
     id="metadata7">
    <rdf:RDF>
      <cc:Work
         rdf:about="">
        <dc:format>image/svg+xml</dc:format>
        <dc:type
           rdf:resource="http://purl.org/dc/dcmitype/StillImage" />
        <dc:title></dc:title>
      </cc:Work>
    </rdf:RDF>
  </metadata>
  <g
     inkscape:label="Layer 1"
     inkscape:groupmode="layer"
     id="layer1">
    <path
       inkscape:connector-curvature="0"
       style="color:#000000;fill:#888a85;fill-opacity:1;fill-rule:nonzero;stroke:#5c3566;stroke-width:20;stroke-linecap:butt;stroke-linejoin:round;stroke-miterlimit:4;stroke-opacity:1;stroke-dasharray:none;stroke-dashoffset:0;marker:none;visibility:visible;display:inline;overflow:visible;filter:url(#filter3768);enable-background:accumulate"
       id="path3744"
       d="m 230.28839,180.59628 c -0.0453,-0.30802 -0.11482,-0.61344 -0.13583,-0.92407 -0.17635,-2.6073 0.13425,-5.46301 0.39452,-8.03749 0.48511,-4.79855 0.74988,-6.35181 1.44067,-11.379 1.97925,-13.19357 4.69456,-26.27777 8.18201,-39.15584 0.58242,-2.15069 1.21923,-4.28627 1.82884,-6.42941 1.82277,-5.88093 3.61489,-11.80289 6.04968,-17.467953 0.12396,-0.24831 0.43152,-1.39542 0.85824,-0.28047 0.0709,0.18518 -0.091,0.38603 -0.13089,0.58026 -0.23681,1.15446 -0.20789,1.10912 -0.40508,2.4477 -0.62498,5.302943 -0.71971,10.672023 -0.3168,15.996823 0.13203,1.74495 0.34476,3.48285 0.51713,5.22427 1.78498,13.31859 5.07654,26.40887 9.07908,39.22393 0.90925,2.91115 1.91248,5.7921 2.86872,8.68815 3.05309,8.80479 6.58624,17.44844 10.82418,25.75193 1.55397,3.04473 2.20131,4.11858 3.81294,6.95454 1.31575,2.44492 3.00172,4.70366 4.11159,7.25972 0.17094,0.39369 0.30211,0.80348 0.45316,1.20522 0,0 -0.0226,0.0112 -0.0226,0.0112 l 0,0 c -1.70148,-2.71719 -3.38226,-5.44779 -5.02052,-8.20361 -1.61244,-2.82401 -2.29185,-3.94758 -3.84165,-6.9771 -4.25795,-8.32336 -7.80389,-16.99134 -10.89359,-25.81102 -0.9629,-2.90083 -1.97283,-5.78647 -2.88871,-8.70249 -3.40837,-10.85173 -6.31011,-21.92102 -8.21894,-33.14144 -0.35007,-2.05779 -0.60527,-4.13061 -0.90791,-6.19591 -0.16988,-1.75245 -0.38032,-3.50144 -0.50965,-5.25735 -0.3952,-5.36589 -0.27793,-10.77365 0.35289,-16.115973 0.20237,-1.35458 0.17457,-1.32258 0.41855,-2.49271 0.0385,-0.18438 -0.0224,-0.43627 0.12739,-0.55048 0.15478,-0.11804 0.39403,-0.0348 0.5839,0.008 0.0423,0.01 -0.049,0.0714 -0.0735,0.10716 -0.0777,0.16766 -0.1555,0.33532 -0.23325,0.50299 -2.41291,5.648313 -4.28174,11.513693 -6.06229,17.385703 -0.60686,2.13927 -1.24152,4.27084 -1.82059,6.4178 -3.46843,12.85949 -6.14774,25.92849 -8.1255,39.09834 -0.68756,5.00264 -0.95542,6.57173 -1.43474,11.34784 -0.26123,2.60304 -0.53302,5.28399 -0.39996,7.90829 0.014,0.27657 0.0625,0.55031 0.0937,0.82547 0,0 -0.55511,0.17695 -0.55511,0.17695 z" />
    <path
       inkscape:connector-curvature="0"
       style="color:#000000;fill:#888a85;fill-opacity:1;fill-rule:nonzero;stroke:#5c3566;stroke-width:20;stroke-linecap:butt;stroke-linejoin:round;stroke-miterlimit:4;stroke-opacity:1;stroke-dasharray:none;stroke-dashoffset:0;marker:none;visibility:visible;display:inline;overflow:visible;filter:url(#filter3768);enable-background:accumulate"
       id="path3746"
       d="m 222.99178,155.27927 c -1.65306,1.37692 -3.29432,2.76978 -4.77164,4.33638 -0.1252,0.16262 -0.2356,0.33779 -0.3756,0.48786 -0.0623,0.0668 0.11999,-0.14638 0.14015,-0.23546 0.0482,-0.21294 -0.0852,-0.48976 0.0607,-0.65215 0.41922,-0.46649 1.02155,-0.72827 1.52087,-1.10779 2.13755,-1.62474 4.23532,-3.33573 6.32751,-5.01317 7.81012,-6.23893 15.47101,-12.67309 23.45629,-18.69062 2.19514,-1.65421 4.4416,-3.23919 6.66049,-4.86141 2.06281,-1.50812 4.12307,-3.01973 6.18461,-4.5296 0,0 0.0152,0.0202 0.0152,0.0202 l 0,0 c -9.76539,7.56475 -2.43012,1.79455 -12.43116,9.91342 -7.76058,6.30006 -15.58844,12.51747 -23.33101,18.83991 -1.82875,1.46462 -4.40548,3.55667 -6.36335,5.03737 -0.75736,0.57278 -1.75761,1.65605 -2.9248,1.28599 -0.36921,-0.11707 0.51013,-1.22384 0.50954,-1.04432 1.58258,-1.49881 3.19958,-2.97918 5.00041,-4.21496 0,0 0.3218,0.42838 0.3218,0.42838 z" />
    <path
       style="opacity:0.6880851;color:#000000;fill:#888a85;fill-opacity:1;fill-rule:nonzero;stroke:#473566;stroke-width:20;stroke-linecap:butt;stroke-linejoin:round;stroke-miterlimit:4;stroke-opacity:1;stroke-dasharray:none;stroke-dashoffset:0;marker:none;visibility:visible;display:inline;overflow:visible;enable-background:accumulate"
       d="M 248.46875 96.46875 C 248.26357 96.554437 248.13997 97.032306 248.0625 97.1875 C 245.62771 102.85256 243.82277 108.77532 242 114.65625 C 241.39039 116.79939 240.73867 118.94306 240.15625 121.09375 C 237.91017 129.38783 236.02141 137.77952 234.40625 146.21875 C 231.57646 148.51486 228.75275 150.81989 225.90625 153.09375 C 224.2763 154.40058 222.62164 155.70909 220.96875 157 C 221.6336 156.41775 222.3206 155.84716 223 155.28125 L 222.65625 154.84375 C 220.85542 156.07953 219.23883 157.56369 217.65625 159.0625 C 217.65684 158.88298 216.78704 160.00793 217.15625 160.125 C 218.32344 160.49506 219.33639 159.38528 220.09375 158.8125 C 222.05162 157.3318 224.60875 155.24587 226.4375 153.78125 C 229.00114 151.68783 231.57945 149.60845 234.15625 147.53125 C 233.36368 151.75991 232.63827 155.99535 232 160.25 C 231.30921 165.27719 231.04761 166.82645 230.5625 171.625 C 230.30223 174.19948 229.9799 177.0802 230.15625 179.6875 C 230.17726 179.99813 230.23595 180.28573 230.28125 180.59375 L 230.84375 180.40625 C 230.81255 180.13109 230.764 179.87032 230.75 179.59375 C 230.61694 176.96945 230.89502 174.29054 231.15625 171.6875 C 231.63557 166.91139 231.90619 165.34639 232.59375 160.34375 C 233.26443 155.87768 234.0083 151.40739 234.84375 146.96875 C 239.82004 142.95979 244.82009 138.96498 249.78125 134.9375 C 250.10769 134.6725 249.8968 134.83011 250.1875 134.59375 C 252.00473 143.3644 254.38214 152.02863 257.0625 160.5625 C 257.97838 163.47852 258.9746 166.38042 259.9375 169.28125 C 263.0272 178.10093 266.5858 186.77039 270.84375 195.09375 C 272.39355 198.12327 273.07506 199.23849 274.6875 202.0625 C 276.32576 204.81832 277.98602 207.56406 279.6875 210.28125 L 279.71875 210.25 C 279.5677 209.84826 279.45219 209.45619 279.28125 209.0625 C 278.17138 206.50644 276.472 204.22617 275.15625 201.78125 C 273.54462 198.94529 272.89772 197.88848 271.34375 194.84375 C 267.10581 186.54026 263.58434 177.89854 260.53125 169.09375 C 259.57501 166.1977 258.5655 163.3174 257.65625 160.40625 C 254.95806 151.76738 252.58952 142.99964 250.78125 134.125 C 257.66604 128.51325 253.22521 131.99808 262.21875 125.03125 L 262.1875 125 C 260.12596 126.50987 258.06281 128.02313 256 129.53125 C 254.22117 130.83174 252.42987 132.13002 250.65625 133.4375 C 249.84202 129.37295 249.11325 125.26565 248.5625 121.15625 C 248.39013 119.41483 248.19453 117.68245 248.0625 115.9375 C 247.65959 110.6127 247.75002 105.24044 248.375 99.9375 C 248.57219 98.59892 248.54444 98.65446 248.78125 97.5 C 248.82114 97.30577 248.97715 97.12268 248.90625 96.9375 C 248.89639 96.911726 248.88474 96.898395 248.875 96.875 C 248.8956 96.85393 248.9274 96.8175 248.90625 96.8125 C 248.88799 96.808385 248.8628 96.817148 248.84375 96.8125 C 248.70713 96.512486 248.57668 96.423676 248.46875 96.46875 z M 247.875 99.1875 C 247.84496 99.39583 247.833 99.52863 247.78125 99.875 C 247.15043 105.21732 247.01105 110.60286 247.40625 115.96875 C 247.53558 117.72466 247.76762 119.4663 247.9375 121.21875 C 248.24014 123.28405 248.49368 125.37971 248.84375 127.4375 C 249.21073 129.59466 249.62558 131.72948 250.0625 133.875 C 249.82286 134.05325 249.58228 134.2265 249.34375 134.40625 C 244.51175 138.04754 239.82438 141.84543 235.125 145.65625 C 236.70132 137.45137 238.54299 129.31681 240.71875 121.25 C 241.29782 119.10304 241.92439 116.95177 242.53125 114.8125 C 244.12858 109.54474 245.80651 104.29266 247.875 99.1875 z "
       id="path3718" />
    <path
       inkscape:connector-curvature="0"
       style="color:#000000;fill:#888a85;fill-opacity:1;fill-rule:nonzero;stroke:#ffffff;stroke-width:4;stroke-linecap:butt;stroke-linejoin:round;stroke-miterlimit:4;stroke-opacity:1;stroke-dasharray:none;stroke-dashoffset:0;marker:none;visibility:visible;display:inline;overflow:visible;enable-background:accumulate"
       id="path2831"
       d="m 230.28839,180.59628 c -0.0453,-0.30802 -0.11482,-0.61344 -0.13583,-0.92407 -0.17635,-2.6073 0.13425,-5.46301 0.39452,-8.03749 0.48511,-4.79855 0.74988,-6.35181 1.44067,-11.379 1.97925,-13.19357 4.69456,-26.27777 8.18201,-39.15584 0.58242,-2.15069 1.21923,-4.28627 1.82884,-6.42941 1.82277,-5.88093 3.61489,-11.80289 6.04968,-17.467953 0.12396,-0.24831 0.43152,-1.39542 0.85824,-0.28047 0.0709,0.18518 -0.091,0.38603 -0.13089,0.58026 -0.23681,1.15446 -0.20789,1.10912 -0.40508,2.4477 -0.62498,5.302943 -0.71971,10.672023 -0.3168,15.996823 0.13203,1.74495 0.34476,3.48285 0.51713,5.22427 1.78498,13.31859 5.07654,26.40887 9.07908,39.22393 0.90925,2.91115 1.91248,5.7921 2.86872,8.68815 3.05309,8.80479 6.58624,17.44844 10.82418,25.75193 1.55397,3.04473 2.20131,4.11858 3.81294,6.95454 1.31575,2.44492 3.00172,4.70366 4.11159,7.25972 0.17094,0.39369 0.30211,0.80348 0.45316,1.20522 0,0 -0.0226,0.0112 -0.0226,0.0112 l 0,0 c -1.70148,-2.71719 -3.38226,-5.44779 -5.02052,-8.20361 -1.61244,-2.82401 -2.29185,-3.94758 -3.84165,-6.9771 -4.25795,-8.32336 -7.80389,-16.99134 -10.89359,-25.81102 -0.9629,-2.90083 -1.97283,-5.78647 -2.88871,-8.70249 -3.40837,-10.85173 -6.31011,-21.92102 -8.21894,-33.14144 -0.35007,-2.05779 -0.60527,-4.13061 -0.90791,-6.19591 -0.16988,-1.75245 -0.38032,-3.50144 -0.50965,-5.25735 -0.3952,-5.36589 -0.27793,-10.77365 0.35289,-16.115973 0.20237,-1.35458 0.17457,-1.32258 0.41855,-2.49271 0.0385,-0.18438 -0.0224,-0.43627 0.12739,-0.55048 0.15478,-0.11804 0.39403,-0.0348 0.5839,0.008 0.0423,0.01 -0.049,0.0714 -0.0735,0.10716 -0.0777,0.16766 -0.1555,0.33532 -0.23325,0.50299 -2.41291,5.648313 -4.28174,11.513693 -6.06229,17.385703 -0.60686,2.13927 -1.24152,4.27084 -1.82059,6.4178 -3.46843,12.85949 -6.14774,25.92849 -8.1255,39.09834 -0.68756,5.00264 -0.95542,6.57173 -1.43474,11.34784 -0.26123,2.60304 -0.53302,5.28399 -0.39996,7.90829 0.014,0.27657 0.0625,0.55031 0.0937,0.82547 0,0 -0.55511,0.17695 -0.55511,0.17695 z" />
    <path
       inkscape:connector-curvature="0"
       style="color:#000000;fill:#888a85;fill-opacity:1;fill-rule:nonzero;stroke:#ffffff;stroke-width:4;stroke-linecap:butt;stroke-linejoin:round;stroke-miterlimit:4;stroke-opacity:1;stroke-dasharray:none;stroke-dashoffset:0;marker:none;visibility:visible;display:inline;overflow:visible;enable-background:accumulate"
       id="path2833"
       d="m 222.99178,155.27927 c -1.65306,1.37692 -3.29432,2.76978 -4.77164,4.33638 -0.1252,0.16262 -0.2356,0.33779 -0.3756,0.48786 -0.0623,0.0668 0.11999,-0.14638 0.14015,-0.23546 0.0482,-0.21294 -0.0852,-0.48976 0.0607,-0.65215 0.41922,-0.46649 1.02155,-0.72827 1.52087,-1.10779 2.13755,-1.62474 4.23532,-3.33573 6.32751,-5.01317 7.81012,-6.23893 15.47101,-12.67309 23.45629,-18.69062 2.19514,-1.65421 4.4416,-3.23919 6.66049,-4.86141 2.06281,-1.50812 4.12307,-3.01973 6.18461,-4.5296 0,0 0.0152,0.0202 0.0152,0.0202 l 0,0 c -9.76539,7.56475 -2.43012,1.79455 -12.43116,9.91342 -7.76058,6.30006 -15.58844,12.51747 -23.33101,18.83991 -1.82875,1.46462 -4.40548,3.55667 -6.36335,5.03737 -0.75736,0.57278 -1.75761,1.65605 -2.9248,1.28599 -0.36921,-0.11707 0.51013,-1.22384 0.50954,-1.04432 1.58258,-1.49881 3.19958,-2.97918 5.00041,-4.21496 0,0 0.3218,0.42838 0.3218,0.42838 z" />
    <path
       style="fill:none;stroke:none;stroke-width:4.50596236999999977;stroke-linecap:round;stroke-linejoin:round;stroke-miterlimit:4;stroke-opacity:1;stroke-dasharray:none"
       d="M 171.875 75.03125 L 171.875 230.1875 L 327 230.1875 L 327 75.03125 L 171.875 75.03125 z "
       id="rect3195"
       inkscape:export-filename="/home/klange/acoustics-desktop/amp_a.png"
       inkscape:export-xdpi="90"
       inkscape:export-ydpi="90" />
  </g>
</svg>
