<?xml version="1.0" encoding="UTF-8" standalone="no"?>
<!-- Created with Inkscape (http://www.inkscape.org/) -->

<svg
   xmlns:dc="http://purl.org/dc/elements/1.1/"
   xmlns:cc="http://creativecommons.org/ns#"
   xmlns:rdf="http://www.w3.org/1999/02/22-rdf-syntax-ns#"
   xmlns:svg="http://www.w3.org/2000/svg"
   xmlns="http://www.w3.org/2000/svg"
   xmlns:sodipodi="http://sodipodi.sourceforge.net/DTD/sodipodi-0.dtd"
   xmlns:inkscape="http://www.inkscape.org/namespaces/inkscape"
   width="744.09448819"
   height="1052.3622047"
   id="svg2"
   version="1.1"
   inkscape:version="0.48.0 r9654"
   sodipodi:docname="acoustics_logo_a.svg"
   inkscape:export-filename="/home/klange/acoustics-desktop/acoustics_logo_a.png"
   inkscape:export-xdpi="90"
   inkscape:export-ydpi="90">
  <defs
     id="defs4">
    <inkscape:perspective
       sodipodi:type="inkscape:persp3d"
       inkscape:vp_x="0 : 526.18109 : 1"
       inkscape:vp_y="0 : 1000 : 0"
       inkscape:vp_z="744.09448 : 526.18109 : 1"
       inkscape:persp3d-origin="372.04724 : 350.78739 : 1"
       id="perspective10" />
    <inkscape:perspective
       id="perspective2845"
       inkscape:persp3d-origin="0.5 : 0.33333333 : 1"
       inkscape:vp_z="1 : 0.5 : 1"
       inkscape:vp_y="0 : 1000 : 0"
       inkscape:vp_x="0 : 0.5 : 1"
       sodipodi:type="inkscape:persp3d" />
    <inkscape:perspective
       id="perspective3635"
       inkscape:persp3d-origin="0.5 : 0.33333333 : 1"
       inkscape:vp_z="1 : 0.5 : 1"
       inkscape:vp_y="0 : 1000 : 0"
       inkscape:vp_x="0 : 0.5 : 1"
       sodipodi:type="inkscape:persp3d" />
    <inkscape:perspective
       id="perspective3635-0"
       inkscape:persp3d-origin="0.5 : 0.33333333 : 1"
       inkscape:vp_z="1 : 0.5 : 1"
       inkscape:vp_y="0 : 1000 : 0"
       inkscape:vp_x="0 : 0.5 : 1"
       sodipodi:type="inkscape:persp3d" />
    <filter
       inkscape:collect="always"
       id="filter3768"
       x="-0.047298581"
       width="1.0945972"
       y="-0.15070467"
       height="1.3014093">
      <feGaussianBlur
         inkscape:collect="always"
         stdDeviation="7.1506533"
         id="feGaussianBlur3770" />
    </filter>
    <filter
       inkscape:collect="always"
       id="filter3796"
       x="-0.237377"
       width="1.474754"
       y="-0.13000429"
       height="1.2600086">
      <feGaussianBlur
         inkscape:collect="always"
         stdDeviation="6.1633571"
         id="feGaussianBlur3798" />
    </filter>
  </defs>
  <sodipodi:namedview
     id="base"
     pagecolor="#ffffff"
     bordercolor="#666666"
     borderopacity="1.0"
     inkscape:pageopacity="0.0"
     inkscape:pageshadow="2"
     inkscape:zoom="2.6743866"
     inkscape:cx="238.2725"
     inkscape:cy="876.59077"
     inkscape:document-units="px"
     inkscape:current-layer="layer1"
     showgrid="false"
     inkscape:window-width="1440"
     inkscape:window-height="871"
     inkscape:window-x="0"
     inkscape:window-y="1"
     inkscape:window-maximized="1" />
  <metadata
     id="metadata7">
    <rdf:RDF>
      <cc:Work
         rdf:about="">
        <dc:format>image/svg+xml</dc:format>
        <dc:type
           rdf:resource="http://purl.org/dc/dcmitype/StillImage" />
        <dc:title></dc:title>
      </cc:Work>
    </rdf:RDF>
  </metadata>
  <g
     inkscape:groupmode="layer"
     id="layer2"
     inkscape:label="Layer">
    <path
       style="fill:none;stroke:none"
       d="m 171.875,75.03125 0,155.15625 155.125,0 0,-155.15625 -155.125,0 z"
       id="rect3195"
       inkscape:export-filename="/home/klange/acoustics-desktop/amp_a.png"
       inkscape:export-xdpi="90"
       inkscape:export-ydpi="90"
       inkscape:connector-curvature="0" />
  </g>
  <g
     inkscape:label="Layer 1"
     inkscape:groupmode="layer"
     id="layer1">
    <path
       style="color:#000000;fill:#888a85;fill-opacity:1;fill-rule:nonzero;stroke:#5c3566;stroke-width:20;stroke-linecap:butt;stroke-linejoin:round;stroke-miterlimit:4;stroke-opacity:1;stroke-dasharray:none;stroke-dashoffset:0;marker:none;visibility:visible;display:inline;overflow:visible;enable-background:accumulate;filter:url(#filter3796)"
       d="m 248.46875,96.46875 c -6.75727,15.88756 -10.67045,32.86426 -14.0625,49.75 -3.36531,2.724 -12.63417,10.28966 -12.42733,9.91575 2.9314,-4.35095 -9.93395,7.77817 -1.88517,2.678 4.76174,-3.66685 9.36665,-7.53134 14.0625,-11.28125 -1.74488,10.92725 -4.24987,21.95482 -3.875,33.0625 0.94805,-5.34361 0.84637,-12.57525 2.07304,-18.52216 1.20182,-5.18425 0.78152,-11.41704 3.42283,-15.85437 4.67035,-3.05976 10.75639,-9.98814 14.58243,-10.80153 5.9305,26.17692 14.52794,52.35374 29.3592,74.83436 -4.07291,-8.37353 -9.40256,-16.1639 -12.8535,-24.88113 -7.06562,-16.47806 -12.38913,-33.70436 -16.084,-51.24387 2.74207,-2.43196 10.55677,-8.32051 10.6331,-8.55871 -4.05947,1.58672 -11.83111,12.49672 -11.63317,3.28265 -1.99768,-10.49323 -2.73126,-21.60652 -0.93743,-32.03649 l -0.375,-0.34375 z M 247.875,99.1875 c -1.61735,11.57824 -0.17447,23.31785 2.18755,34.6875 -5.08825,3.78648 -10.00933,7.79055 -14.9375,11.78125 3.11104,-15.75861 6.893,-31.48088 12.74995,-46.46875 z"
       id="path3744"
       inkscape:connector-curvature="0"
       inkscape:export-filename="/home/klange/acoustics-desktop/amp_a.png"
       inkscape:export-xdpi="90"
       inkscape:export-ydpi="90" />
    <path
       style="opacity:0.6880851;color:#000000;fill:#888a85;fill-opacity:1;fill-rule:nonzero;stroke:#473566;stroke-width:20;stroke-linecap:butt;stroke-linejoin:round;stroke-miterlimit:4;stroke-opacity:1;stroke-dasharray:none;stroke-dashoffset:0;marker:none;visibility:visible;display:inline;overflow:visible;enable-background:accumulate"
       d="m 248.46875,96.46875 c -0.20518,0.08569 -0.32878,0.563556 -0.40625,0.71875 -2.43479,5.66506 -4.23973,11.58782 -6.0625,17.46875 -0.60961,2.14314 -1.26133,4.28681 -1.84375,6.4375 -2.24608,8.29408 -4.13484,16.68577 -5.75,25.125 -2.82979,2.29611 -5.6535,4.60114 -8.5,6.875 -1.62995,1.30683 -3.28461,2.61534 -4.9375,3.90625 0.66485,-0.58225 1.35185,-1.15284 2.03125,-1.71875 l -0.34375,-0.4375 c -1.80083,1.23578 -3.41742,2.71994 -5,4.21875 5.9e-4,-0.17952 -0.86921,0.94543 -0.5,1.0625 1.16719,0.37006 2.18014,-0.73972 2.9375,-1.3125 1.95787,-1.4807 4.515,-3.56663 6.34375,-5.03125 2.56364,-2.09342 5.14195,-4.1728 7.71875,-6.25 -0.79257,4.22866 -1.51798,8.4641 -2.15625,12.71875 -0.69079,5.02719 -0.95239,6.57645 -1.4375,11.375 -0.26027,2.57448 -0.5826,5.4552 -0.40625,8.0625 0.021,0.31063 0.0797,0.59823 0.125,0.90625 l 0.5625,-0.1875 c -0.0312,-0.27516 -0.0797,-0.53593 -0.0937,-0.8125 -0.13306,-2.6243 0.14502,-5.30321 0.40625,-7.90625 0.47932,-4.77611 0.74994,-6.34111 1.4375,-11.34375 0.67068,-4.46607 1.41455,-8.93636 2.25,-13.375 4.97629,-4.00896 9.97634,-8.00377 14.9375,-12.03125 0.32644,-0.265 0.11555,-0.10739 0.40625,-0.34375 1.81723,8.77065 4.19464,17.43488 6.875,25.96875 0.91588,2.91602 1.9121,5.81792 2.875,8.71875 3.0897,8.81968 6.6483,17.48914 10.90625,25.8125 1.5498,3.02952 2.23131,4.14474 3.84375,6.96875 1.63826,2.75582 3.29852,5.50156 5,8.21875 l 0.0312,-0.0312 c -0.15105,-0.40174 -0.26656,-0.79381 -0.4375,-1.1875 -1.10987,-2.55606 -2.80925,-4.83633 -4.125,-7.28125 -1.61163,-2.83596 -2.25853,-3.89277 -3.8125,-6.9375 -4.23794,-8.30349 -7.75941,-16.94521 -10.8125,-25.75 -0.95624,-2.89605 -1.96575,-5.77635 -2.875,-8.6875 -2.69819,-8.63887 -5.06673,-17.40661 -6.875,-26.28125 6.88479,-5.61175 2.44396,-2.12692 11.4375,-9.09375 L 262.1875,125 c -2.06154,1.50987 -4.12469,3.02313 -6.1875,4.53125 -1.77883,1.30049 -3.57013,2.59877 -5.34375,3.90625 -0.81423,-4.06455 -1.543,-8.17185 -2.09375,-12.28125 -0.17237,-1.74142 -0.36797,-3.4738 -0.5,-5.21875 -0.40291,-5.3248 -0.31248,-10.69706 0.3125,-16 0.19719,-1.33858 0.16944,-1.28304 0.40625,-2.4375 0.0399,-0.19423 0.1959,-0.37732 0.125,-0.5625 -0.01,-0.02577 -0.0215,-0.03911 -0.0312,-0.0625 0.0206,-0.02107 0.0524,-0.0575 0.0312,-0.0625 -0.0183,-0.0041 -0.0435,0.0046 -0.0625,0 -0.13662,-0.300014 -0.26707,-0.388824 -0.375,-0.34375 z M 247.875,99.1875 c -0.03,0.20833 -0.042,0.34113 -0.0937,0.6875 -0.63082,5.34232 -0.7702,10.72786 -0.375,16.09375 0.12933,1.75591 0.36137,3.49755 0.53125,5.25 0.30264,2.0653 0.55618,4.16096 0.90625,6.21875 0.36698,2.15716 0.78183,4.29198 1.21875,6.4375 -0.23964,0.17825 -0.48022,0.3515 -0.71875,0.53125 -4.832,3.64129 -9.51937,7.43918 -14.21875,11.25 1.57632,-8.20488 3.41799,-16.33944 5.59375,-24.40625 0.57907,-2.14696 1.20564,-4.29823 1.8125,-6.4375 1.59733,-5.26776 3.27526,-10.51984 5.34375,-15.625 z"
       id="path3718"
       inkscape:connector-curvature="0"
       inkscape:export-filename="/home/klange/acoustics-desktop/amp_a.png"
       inkscape:export-xdpi="90"
       inkscape:export-ydpi="90" />
    <path
       inkscape:connector-curvature="0"
       style="color:#000000;fill:#888a85;fill-opacity:1;fill-rule:nonzero;stroke:#ffffff;stroke-width:4;stroke-linecap:butt;stroke-linejoin:round;stroke-miterlimit:4;stroke-opacity:1;stroke-dasharray:none;stroke-dashoffset:0;marker:none;visibility:visible;display:inline;overflow:visible;enable-background:accumulate"
       id="path2831"
       d="m 230.28839,180.59628 c -0.0453,-0.30802 -0.11482,-0.61344 -0.13583,-0.92407 -0.17635,-2.6073 0.13425,-5.46301 0.39452,-8.03749 0.48511,-4.79855 0.74988,-6.35181 1.44067,-11.379 1.97925,-13.19357 4.69456,-26.27777 8.18201,-39.15584 0.58242,-2.15069 1.21923,-4.28627 1.82884,-6.42941 1.82277,-5.88093 3.61489,-11.80289 6.04968,-17.467953 0.12396,-0.24831 0.43152,-1.39542 0.85824,-0.28047 0.0709,0.18518 -0.091,0.38603 -0.13089,0.58026 -0.23681,1.15446 -0.20789,1.10912 -0.40508,2.4477 -0.62498,5.302943 -0.71971,10.672023 -0.3168,15.996823 0.13203,1.74495 0.34476,3.48285 0.51713,5.22427 1.78498,13.31859 5.07654,26.40887 9.07908,39.22393 0.90925,2.91115 1.91248,5.7921 2.86872,8.68815 3.05309,8.80479 6.58624,17.44844 10.82418,25.75193 1.55397,3.04473 2.20131,4.11858 3.81294,6.95454 1.31575,2.44492 3.00172,4.70366 4.11159,7.25972 0.17094,0.39369 0.30211,0.80348 0.45316,1.20522 0,0 -0.0226,0.0112 -0.0226,0.0112 l 0,0 c -1.70148,-2.71719 -3.38226,-5.44779 -5.02052,-8.20361 -1.61244,-2.82401 -2.29185,-3.94758 -3.84165,-6.9771 -4.25795,-8.32336 -7.80389,-16.99134 -10.89359,-25.81102 -0.9629,-2.90083 -1.97283,-5.78647 -2.88871,-8.70249 -3.40837,-10.85173 -6.31011,-21.92102 -8.21894,-33.14144 -0.35007,-2.05779 -0.60527,-4.13061 -0.90791,-6.19591 -0.16988,-1.75245 -0.38032,-3.50144 -0.50965,-5.25735 -0.3952,-5.36589 -0.27793,-10.77365 0.35289,-16.115973 0.20237,-1.35458 0.17457,-1.32258 0.41855,-2.49271 0.0385,-0.18438 -0.0224,-0.43627 0.12739,-0.55048 0.15478,-0.11804 0.39403,-0.0348 0.5839,0.008 0.0423,0.01 -0.049,0.0714 -0.0735,0.10716 -0.0777,0.16766 -0.1555,0.33532 -0.23325,0.50299 -2.41291,5.648313 -4.28174,11.513693 -6.06229,17.385703 -0.60686,2.13927 -1.24152,4.27084 -1.82059,6.4178 -3.46843,12.85949 -6.14774,25.92849 -8.1255,39.09834 -0.68756,5.00264 -0.95542,6.57173 -1.43474,11.34784 -0.26123,2.60304 -0.53302,5.28399 -0.39996,7.90829 0.014,0.27657 0.0625,0.55031 0.0937,0.82547 0,0 -0.55511,0.17695 -0.55511,0.17695 z"
       inkscape:export-filename="/home/klange/acoustics-desktop/amp_a.png"
       inkscape:export-xdpi="90"
       inkscape:export-ydpi="90" />
    <path
       inkscape:connector-curvature="0"
       style="color:#000000;fill:#888a85;fill-opacity:1;fill-rule:nonzero;stroke:#ffffff;stroke-width:4;stroke-linecap:butt;stroke-linejoin:round;stroke-miterlimit:4;stroke-opacity:1;stroke-dasharray:none;stroke-dashoffset:0;marker:none;visibility:visible;display:inline;overflow:visible;enable-background:accumulate"
       id="path2833"
       d="m 222.99178,155.27927 c -1.65306,1.37692 -3.29432,2.76978 -4.77164,4.33638 -0.1252,0.16262 -0.2356,0.33779 -0.3756,0.48786 -0.0623,0.0668 0.11999,-0.14638 0.14015,-0.23546 0.0482,-0.21294 -0.0852,-0.48976 0.0607,-0.65215 0.41922,-0.46649 1.02155,-0.72827 1.52087,-1.10779 2.13755,-1.62474 4.23532,-3.33573 6.32751,-5.01317 7.81012,-6.23893 15.47101,-12.67309 23.45629,-18.69062 2.19514,-1.65421 4.4416,-3.23919 6.66049,-4.86141 2.06281,-1.50812 4.12307,-3.01973 6.18461,-4.5296 0,0 0.0152,0.0202 0.0152,0.0202 l 0,0 c -9.76539,7.56475 -2.43012,1.79455 -12.43116,9.91342 -7.76058,6.30006 -15.58844,12.51747 -23.33101,18.83991 -1.82875,1.46462 -4.40548,3.55667 -6.36335,5.03737 -0.75736,0.57278 -1.75761,1.65605 -2.9248,1.28599 -0.36921,-0.11707 0.51013,-1.22384 0.50954,-1.04432 1.58258,-1.49881 3.19958,-2.97918 5.00041,-4.21496 0,0 0.3218,0.42838 0.3218,0.42838 z"
       inkscape:export-filename="/home/klange/acoustics-desktop/amp_a.png"
       inkscape:export-xdpi="90"
       inkscape:export-ydpi="90" />
  </g>
</svg>
