<?xml version="1.0" encoding="UTF-8" standalone="no"?>
<!-- Created with Inkscape (http://www.inkscape.org/) -->

<svg
   xmlns:dc="http://purl.org/dc/elements/1.1/"
   xmlns:cc="http://creativecommons.org/ns#"
   xmlns:rdf="http://www.w3.org/1999/02/22-rdf-syntax-ns#"
   xmlns:svg="http://www.w3.org/2000/svg"
   xmlns="http://www.w3.org/2000/svg"
   xmlns:sodipodi="http://sodipodi.sourceforge.net/DTD/sodipodi-0.dtd"
   xmlns:inkscape="http://www.inkscape.org/namespaces/inkscape"
   width="744.09448819"
   height="1052.3622047"
   id="svg2"
   version="1.1"
   inkscape:version="0.48.0 r9654"
   sodipodi:docname="acoustics_logo.svg">
  <defs
     id="defs4">
    <inkscape:perspective
       sodipodi:type="inkscape:persp3d"
       inkscape:vp_x="0 : 526.18109 : 1"
       inkscape:vp_y="0 : 1000 : 0"
       inkscape:vp_z="744.09448 : 526.18109 : 1"
       inkscape:persp3d-origin="372.04724 : 350.78739 : 1"
       id="perspective10" />
    <inkscape:perspective
       id="perspective2845"
       inkscape:persp3d-origin="0.5 : 0.33333333 : 1"
       inkscape:vp_z="1 : 0.5 : 1"
       inkscape:vp_y="0 : 1000 : 0"
       inkscape:vp_x="0 : 0.5 : 1"
       sodipodi:type="inkscape:persp3d" />
    <inkscape:perspective
       id="perspective3635"
       inkscape:persp3d-origin="0.5 : 0.33333333 : 1"
       inkscape:vp_z="1 : 0.5 : 1"
       inkscape:vp_y="0 : 1000 : 0"
       inkscape:vp_x="0 : 0.5 : 1"
       sodipodi:type="inkscape:persp3d" />
    <inkscape:perspective
       id="perspective3635-0"
       inkscape:persp3d-origin="0.5 : 0.33333333 : 1"
       inkscape:vp_z="1 : 0.5 : 1"
       inkscape:vp_y="0 : 1000 : 0"
       inkscape:vp_x="0 : 0.5 : 1"
       sodipodi:type="inkscape:persp3d" />
    <filter
       inkscape:collect="always"
       id="filter3768"
       x="-0.047298581"
       width="1.0945972"
       y="-0.15070467"
       height="1.3014093">
      <feGaussianBlur
         inkscape:collect="always"
         stdDeviation="7.1506533"
         id="feGaussianBlur3770" />
    </filter>
  </defs>
  <sodipodi:namedview
     id="base"
     pagecolor="#ffffff"
     bordercolor="#666666"
     borderopacity="1.0"
     inkscape:pageopacity="0.0"
     inkscape:pageshadow="2"
     inkscape:zoom="2.6743866"
     inkscape:cx="411.47321"
     inkscape:cy="874.58086"
     inkscape:document-units="px"
     inkscape:current-layer="layer1"
     showgrid="false"
     inkscape:window-width="1440"
     inkscape:window-height="871"
     inkscape:window-x="0"
     inkscape:window-y="1"
     inkscape:window-maximized="1" />
  <metadata
     id="metadata7">
    <rdf:RDF>
      <cc:Work
         rdf:about="">
        <dc:format>image/svg+xml</dc:format>
        <dc:type
           rdf:resource="http://purl.org/dc/dcmitype/StillImage" />
        <dc:title></dc:title>
      </cc:Work>
    </rdf:RDF>
  </metadata>
  <g
     inkscape:label="Layer 1"
     inkscape:groupmode="layer"
     id="layer1">
    <g
       style="stroke:#5c3566;stroke-opacity:1;stroke-width:20;stroke-miterlimit:4;stroke-dasharray:none;filter:url(#filter3768)"
       id="g3742"
       inkscape:export-filename="/home/klange/amp_logo_big.png"
       inkscape:export-xdpi="90"
       inkscape:export-ydpi="90">
      <path
         d="m 230.28839,180.59628 c -0.0453,-0.30802 -0.11482,-0.61344 -0.13583,-0.92407 -0.17635,-2.6073 0.13425,-5.46301 0.39452,-8.03749 0.48511,-4.79855 0.74988,-6.35181 1.44067,-11.379 1.97925,-13.19357 4.69456,-26.27777 8.18201,-39.15584 0.58242,-2.15069 1.21923,-4.28627 1.82884,-6.42941 1.82277,-5.88093 3.61489,-11.80289 6.04968,-17.467953 0.12396,-0.24831 0.43152,-1.39542 0.85824,-0.28047 0.0709,0.18518 -0.091,0.38603 -0.13089,0.58026 -0.23681,1.15446 -0.20789,1.10912 -0.40508,2.4477 -0.62498,5.302943 -0.71971,10.672023 -0.3168,15.996823 0.13203,1.74495 0.34476,3.48285 0.51713,5.22427 1.78498,13.31859 5.07654,26.40887 9.07908,39.22393 0.90925,2.91115 1.91248,5.7921 2.86872,8.68815 3.05309,8.80479 6.58624,17.44844 10.82418,25.75193 1.55397,3.04473 2.20131,4.11858 3.81294,6.95454 1.31575,2.44492 3.00172,4.70366 4.11159,7.25972 0.17094,0.39369 0.30211,0.80348 0.45316,1.20522 0,0 -0.0226,0.0112 -0.0226,0.0112 l 0,0 c -1.70148,-2.71719 -3.38226,-5.44779 -5.02052,-8.20361 -1.61244,-2.82401 -2.29185,-3.94758 -3.84165,-6.9771 -4.25795,-8.32336 -7.80389,-16.99134 -10.89359,-25.81102 -0.9629,-2.90083 -1.97283,-5.78647 -2.88871,-8.70249 -3.40837,-10.85173 -6.31011,-21.92102 -8.21894,-33.14144 -0.35007,-2.05779 -0.60527,-4.13061 -0.90791,-6.19591 -0.16988,-1.75245 -0.38032,-3.50144 -0.50965,-5.25735 -0.3952,-5.36589 -0.27793,-10.77365 0.35289,-16.115973 0.20237,-1.35458 0.17457,-1.32258 0.41855,-2.49271 0.0385,-0.18438 -0.0224,-0.43627 0.12739,-0.55048 0.15478,-0.11804 0.39403,-0.0348 0.5839,0.008 0.0423,0.01 -0.049,0.0714 -0.0735,0.10716 -0.0777,0.16766 -0.1555,0.33532 -0.23325,0.50299 -2.41291,5.648313 -4.28174,11.513693 -6.06229,17.385703 -0.60686,2.13927 -1.24152,4.27084 -1.82059,6.4178 -3.46843,12.85949 -6.14774,25.92849 -8.1255,39.09834 -0.68756,5.00264 -0.95542,6.57173 -1.43474,11.34784 -0.26123,2.60304 -0.53302,5.28399 -0.39996,7.90829 0.014,0.27657 0.0625,0.55031 0.0937,0.82547 0,0 -0.55511,0.17695 -0.55511,0.17695 z"
         id="path3744"
         style="color:#000000;fill:#888a85;fill-opacity:1;fill-rule:nonzero;stroke:#5c3566;stroke-width:20;stroke-linecap:butt;stroke-linejoin:round;stroke-miterlimit:4;stroke-opacity:1;stroke-dasharray:none;stroke-dashoffset:0;marker:none;visibility:visible;display:inline;overflow:visible;enable-background:accumulate" />
      <path
         d="m 222.99178,155.27927 c -1.65306,1.37692 -3.29432,2.76978 -4.77164,4.33638 -0.1252,0.16262 -0.2356,0.33779 -0.3756,0.48786 -0.0623,0.0668 0.11999,-0.14638 0.14015,-0.23546 0.0482,-0.21294 -0.0852,-0.48976 0.0607,-0.65215 0.41922,-0.46649 1.02155,-0.72827 1.52087,-1.10779 2.13755,-1.62474 4.23532,-3.33573 6.32751,-5.01317 7.81012,-6.23893 15.47101,-12.67309 23.45629,-18.69062 2.19514,-1.65421 4.4416,-3.23919 6.66049,-4.86141 2.06281,-1.50812 4.12307,-3.01973 6.18461,-4.5296 0,0 0.0152,0.0202 0.0152,0.0202 l 0,0 c -9.76539,7.56475 -2.43012,1.79455 -12.43116,9.91342 -7.76058,6.30006 -15.58844,12.51747 -23.33101,18.83991 -1.82875,1.46462 -4.40548,3.55667 -6.36335,5.03737 -0.75736,0.57278 -1.75761,1.65605 -2.9248,1.28599 -0.36921,-0.11707 0.51013,-1.22384 0.50954,-1.04432 1.58258,-1.49881 3.19958,-2.97918 5.00041,-4.21496 0,0 0.3218,0.42838 0.3218,0.42838 z"
         id="path3746"
         style="color:#000000;fill:#888a85;fill-opacity:1;fill-rule:nonzero;stroke:#5c3566;stroke-width:20;stroke-linecap:butt;stroke-linejoin:round;stroke-miterlimit:4;stroke-opacity:1;stroke-dasharray:none;stroke-dashoffset:0;marker:none;visibility:visible;display:inline;overflow:visible;enable-background:accumulate" />
      <path
         d="m 307.58792,117.87324 c -0.94059,-1.62326 -1.99663,-0.69206 -3.21078,0.13198 -0.51023,0.5201 -1.06693,0.99836 -1.53067,1.5603 -1.62567,1.96991 -2.91528,4.11963 -4.07152,6.39798 -1.81775,3.58183 -3.31594,7.30662 -4.54328,11.13105 -0.7297,2.27381 -1.29177,4.59804 -1.93765,6.89707 -1.11071,5.7146 -1.90361,8.50658 -2.06031,14.32065 -0.0577,2.13928 -0.009,4.2944 0.28885,6.41368 0.45034,3.20806 1.4629,6.77287 3.78831,9.21395 0.94112,0.98793 2.27982,1.49975 3.41974,2.24963 1.43928,0.18983 2.86826,0.64877 4.31784,0.5695 3.74777,-0.20494 7.6837,-1.94419 10.878,-3.69925 4.42454,-2.431 8.06776,-5.29553 11.92512,-8.53374 1.90616,-1.6002 3.72051,-3.30667 5.58077,-4.96001 0,0 0.0176,0.0181 0.0176,0.0181 l 0,0 c -1.72508,1.82028 -3.34779,3.74336 -5.17525,5.46084 -3.35803,3.15593 -7.88975,6.65714 -11.93112,8.92708 -3.35745,1.8858 -7.48454,3.69447 -11.44601,3.83849 -1.60598,0.0584 -3.1766,-0.48939 -4.7649,-0.73408 -1.2447,-0.8578 -2.70441,-1.46667 -3.73411,-2.57339 -2.42069,-2.60178 -3.47643,-6.33929 -3.94462,-9.72986 -0.97574,-7.06611 0.34082,-14.18961 1.82478,-21.06787 0.65735,-2.32373 1.22928,-4.67335 1.97205,-6.97121 1.22751,-3.79743 2.80637,-7.72132 4.64062,-11.281 1.16046,-2.25209 2.61705,-4.61658 4.27511,-6.56697 0.51549,-0.60638 1.13432,-1.1167 1.70147,-1.67505 0.46527,-0.28441 0.89485,-0.63778 1.39579,-0.85324 1.36255,-0.58603 2.46713,-0.0228 2.9818,1.26373 0,0 -0.6576,0.25161 -0.6576,0.25161 z"
         id="path3748"
         style="color:#000000;fill:#888a85;fill-opacity:1;fill-rule:nonzero;stroke:#5c3566;stroke-width:20;stroke-linecap:butt;stroke-linejoin:round;stroke-miterlimit:4;stroke-opacity:1;stroke-dasharray:none;stroke-dashoffset:0;marker:none;visibility:visible;display:inline;overflow:visible;enable-background:accumulate" />
      <path
         d="m 360.2626,121.30474 c -1.21977,1.0227 -2.04292,2.48167 -2.77152,3.87063 -1.18055,2.25052 -1.57293,3.33529 -2.60715,5.77596 -1.64255,4.24305 -3.05708,8.59912 -3.88838,13.08174 -0.52348,2.8228 -0.93251,6.14696 -0.68844,9.0398 0.10523,1.24721 0.47835,2.45716 0.71752,3.68573 0.51711,0.90837 0.84657,1.9532 1.55132,2.72511 1.43962,1.57681 3.40503,2.06505 5.46976,1.89717 2.8174,-0.22908 5.74445,-1.59358 8.08237,-3.04383 1.53597,-0.95279 2.90969,-2.14515 4.36454,-3.21773 1.34652,-1.35476 2.80634,-2.60562 4.03957,-4.06426 4.3148,-5.1035 7.75062,-12.01212 6.29327,-18.88106 -0.28906,-1.36245 -0.99956,-2.60003 -1.49934,-3.90004 -0.85376,-1.04552 -1.56867,-2.22182 -2.56129,-3.13654 -1.91591,-1.76556 -4.88328,-3.27574 -7.35243,-4.01047 -1.38838,-0.41313 -2.84872,-0.52713 -4.27308,-0.7907 0,0 0.004,-0.0249 0.004,-0.0249 l 0,0 c 3.16226,0.43822 5.6408,0.54322 8.59859,1.91724 3.71928,1.72776 3.91722,2.6577 6.44191,5.71641 0.53203,1.39013 1.28908,2.71392 1.59608,4.17037 1.50687,7.14871 -2.04242,14.33263 -6.55315,19.63236 -1.27009,1.49225 -2.77178,2.77074 -4.15768,4.15611 -1.50288,1.10091 -2.92075,2.32842 -4.50863,3.30273 -4.1443,2.54288 -10.88951,5.25198 -14.83867,0.75447 -0.75747,-0.86265 -1.10547,-2.01237 -1.6582,-3.01855 -0.24332,-1.29347 -0.62453,-2.56849 -0.72996,-3.88042 -0.23874,-2.97072 0.1923,-6.34552 0.73531,-9.24449 0.84973,-4.53643 2.27362,-8.94624 3.95963,-13.2338 1.15727,-2.65619 1.41447,-3.42535 2.72968,-5.83827 0.71477,-1.31134 1.53514,-2.76045 2.68582,-3.75913 0.15996,-0.13884 0.35231,-0.23523 0.52846,-0.35284 0,0 0.29006,0.67123 0.29006,0.67123 z"
         id="path3750"
         style="color:#000000;fill:#888a85;fill-opacity:1;fill-rule:nonzero;stroke:#5c3566;stroke-width:20;stroke-linecap:butt;stroke-linejoin:round;stroke-miterlimit:4;stroke-opacity:1;stroke-dasharray:none;stroke-dashoffset:0;marker:none;visibility:visible;display:inline;overflow:visible;enable-background:accumulate" />
      <path
         d="m 392.13159,117.86322 c -0.73382,4.13711 -1.35738,8.29736 -1.73257,12.48392 -0.13802,1.54003 -0.22426,3.08426 -0.33638,4.62639 -0.203,4.85501 -0.2215,9.77064 0.75758,14.55718 0.51072,2.49685 1.33722,5.26339 2.77294,7.42626 0.56534,0.85165 1.37781,1.5104 2.06672,2.2656 0.80211,0.36367 1.54234,0.92025 2.40633,1.09101 1.94012,0.38342 3.93328,-0.33462 5.55527,-1.31611 2.29932,-1.39136 4.28397,-3.49681 5.86966,-5.62438 0.96303,-1.29215 1.73895,-2.71373 2.60842,-4.0706 0.73489,-1.52474 1.54512,-3.01542 2.20467,-4.57423 1.26111,-2.98055 2.2227,-6.10174 2.97737,-9.24561 0.53778,-2.24033 1.00452,-4.83452 1.16062,-7.16046 0.0493,-0.73418 -0.004,-1.47166 -0.006,-2.2075 -0.10156,-0.34817 -0.12611,-0.72883 -0.30468,-1.04451 -0.0676,-0.11957 -0.0236,0.27472 -0.0551,0.40841 -0.0827,0.35035 -0.18779,0.69504 -0.28696,1.04108 -0.78222,2.72919 -0.93683,2.83147 -1.34477,5.99304 -0.18683,1.44795 -0.25766,2.90852 -0.38649,4.36278 -0.16219,4.74064 0.16011,9.5211 1.51938,14.09162 0.70401,2.36722 1.71425,4.74856 3.2448,6.71755 0.55813,0.718 1.3018,1.27023 1.9527,1.90534 0.68136,0.33863 1.36272,0.67726 2.04409,1.01589 0,0 -0.008,0.0238 -0.008,0.0238 l 0,0 c -0.8183,-0.19004 -1.6366,-0.38007 -2.4549,-0.5701 -0.7665,-0.63018 -1.6494,-1.14086 -2.2995,-1.89054 -1.65349,-1.90678 -2.79191,-4.60972 -3.50765,-6.96897 -1.41754,-4.67253 -1.7265,-9.56988 -1.56827,-14.42094 0.31644,-3.50989 0.29564,-4.81765 1.08018,-8.13168 0.21176,-0.89454 0.42408,-1.8026 0.81491,-2.63465 0.3062,-0.65186 1.16563,-2.46695 2.22534,-1.20084 0.28758,0.34359 0.21414,0.87016 0.32121,1.30524 -0.006,0.77269 0.0386,1.54741 -0.0178,2.31807 -0.1702,2.32939 -0.65651,5.06992 -1.19634,7.3042 -0.76664,3.17295 -1.77483,6.3956 -3.05674,9.39864 -0.67916,1.591 -1.51224,3.11179 -2.26836,4.66769 -0.89803,1.39338 -1.698,2.85511 -2.69411,4.18015 -1.65538,2.20201 -3.79846,4.45515 -6.21417,5.86496 -1.90993,1.11463 -4.07031,1.80403 -6.30074,1.29868 -0.97564,-0.22105 -1.80108,-0.87128 -2.70162,-1.30692 -0.73679,-0.82599 -1.60324,-1.5525 -2.21039,-2.47797 -1.46967,-2.24016 -2.33327,-5.12775 -2.85387,-7.70729 -0.97887,-4.85025 -0.95257,-9.83389 -0.74166,-14.75059 0.11802,-1.55234 0.20972,-3.10691 0.35407,-4.65703 0.39141,-4.20335 0.99493,-8.39652 1.83953,-12.53262 0,0 0.7718,0.14602 0.7718,0.14602 z"
         id="path3752"
         style="color:#000000;fill:#888a85;fill-opacity:1;fill-rule:nonzero;stroke:#5c3566;stroke-width:20;stroke-linecap:butt;stroke-linejoin:round;stroke-miterlimit:4;stroke-opacity:1;stroke-dasharray:none;stroke-dashoffset:0;marker:none;visibility:visible;display:inline;overflow:visible;enable-background:accumulate" />
      <path
         d="m 448.14974,116.29309 c -2.56269,0.22523 -4.64697,2.01401 -6.57181,3.55208 -1.72692,1.54341 -3.37309,3.21142 -4.65776,5.15147 -0.57044,0.86146 -1.34347,2.16373 -1.42243,3.27076 -0.0275,0.38619 0.16137,0.75733 0.24205,1.13599 0.30631,0.2518 0.56396,0.5787 0.91893,0.75541 1.93221,0.96185 5.3687,1.02677 7.45153,1.18379 4.89491,0.369 1.98375,0.0846 6.8499,0.63823 1.03363,0.21452 2.08751,0.34787 3.10091,0.64358 2.29357,0.66927 4.8547,1.89087 5.45852,4.47866 0.49491,2.12105 -0.26084,3.41335 -0.904,5.40152 -0.56366,1.06223 -1.07547,2.15363 -1.69097,3.18667 -1.28134,2.15057 -3.31195,4.95262 -4.80132,6.93617 -0.85969,1.14495 -1.72374,2.28766 -2.63233,3.39421 -4.56792,5.56315 -0.80977,0.44263 -4.54695,5.73204 0,0 -0.0207,-0.0145 -0.0207,-0.0145 l 0,0 c 5.3042,-7.68253 -1.78621,2.72115 3.93788,-6.17871 2.87942,-4.47696 6.39959,-8.56624 8.67882,-13.4147 0.53726,-1.55716 1.25511,-2.86991 0.97534,-4.56601 -0.56006,-3.39541 -5.01815,-4.06837 -7.66864,-4.66002 -4.52395,-0.5789 -2.21975,-0.33981 -6.80534,-0.70069 -2.17197,-0.17092 -6.05928,-0.22591 -7.99334,-1.41755 -0.48809,-0.30073 -0.79102,-0.83006 -1.18653,-1.24509 -0.0748,-0.51341 -0.27016,-1.02344 -0.2243,-1.54024 0.10584,-1.19297 0.94285,-2.62345 1.56847,-3.56098 1.33181,-1.99578 3.03238,-3.72213 4.81643,-5.31025 1.92532,-1.51871 4.0595,-3.29585 6.60068,-3.59144 0.20113,-0.0234 0.40495,-0.005 0.60742,-0.007 0,0 -0.0805,0.74663 -0.0805,0.74663 z"
         id="path3754"
         style="color:#000000;fill:#888a85;fill-opacity:1;fill-rule:nonzero;stroke:#5c3566;stroke-width:20;stroke-linecap:butt;stroke-linejoin:round;stroke-miterlimit:4;stroke-opacity:1;stroke-dasharray:none;stroke-dashoffset:0;marker:none;visibility:visible;display:inline;overflow:visible;enable-background:accumulate" />
      <path
         d="m 489.3486,101.68422 c 0.44648,-1.62202 1.10892,-3.174903 1.85178,-4.680943 0.16646,-0.23814 0.51625,-0.98112 1.038,-0.38927 0.42364,0.48054 0.20908,2.54829 0.19143,2.85098 -0.0992,1.700613 -0.36944,4.812093 -0.49688,6.353513 -0.60442,7.15565 -1.096,14.32461 -1.272,21.50511 -0.12476,5.09017 -0.0664,6.21145 -0.005,11.21885 0.0491,5.69237 0.74665,11.35825 0.6824,17.05084 0,0 -0.0252,0.002 -0.0252,0.002 l 0,0 c -0.27737,-1.47272 -0.5674,-2.9244 -0.75811,-4.41478 -0.53566,-4.18612 -0.71818,-8.41232 -0.85779,-12.62611 -0.0238,-1.8188 -0.072,-3.63744 -0.0715,-5.45639 0.003,-9.13645 0.58635,-18.25935 1.39178,-27.35665 0.12421,-1.4547 0.40968,-4.67645 0.51662,-6.313843 0.0354,-0.54141 0.0209,-1.08613 0.0755,-1.62594 0.0166,-0.16453 0.0348,-0.3469 0.13724,-0.47675 0.0956,-0.12125 0.26488,-0.27067 0.40949,-0.21654 0.11544,0.0432 -0.1618,0.18598 -0.24271,0.27897 -0.83346,1.41688 -1.50222,2.920183 -2.12587,4.439563 0,0 -0.43916,-0.14282 -0.43916,-0.14282 z"
         id="path3756"
         style="color:#000000;fill:#888a85;fill-opacity:1;fill-rule:nonzero;stroke:#5c3566;stroke-width:20;stroke-linecap:butt;stroke-linejoin:round;stroke-miterlimit:4;stroke-opacity:1;stroke-dasharray:none;stroke-dashoffset:0;marker:none;visibility:visible;display:inline;overflow:visible;enable-background:accumulate" />
      <path
         d="m 461.88091,138.46468 c 6.5256,-3.25787 13.12594,-6.35857 19.75863,-9.39119 6.81343,-3.00719 13.64257,-6.01032 20.6474,-8.55184 1.19316,-0.43291 2.40206,-0.82111 3.60308,-1.23166 0,0 0.01,0.0234 0.01,0.0234 l 0,0 c -1.14308,0.55028 -2.27838,1.11701 -3.42924,1.65084 -6.74867,3.13043 -13.65459,5.91137 -20.40472,9.03916 -6.61766,3.03928 -13.20346,6.14515 -19.72624,9.38393 0,0 -0.45849,-0.92261 -0.45849,-0.92261 z"
         id="path3758"
         style="color:#000000;fill:#888a85;fill-opacity:1;fill-rule:nonzero;stroke:#5c3566;stroke-width:20;stroke-linecap:butt;stroke-linejoin:round;stroke-miterlimit:4;stroke-opacity:1;stroke-dasharray:none;stroke-dashoffset:0;marker:none;visibility:visible;display:inline;overflow:visible;enable-background:accumulate" />
      <path
         d="m 510.55676,132.50673 c 0.37854,4.381 0.64922,8.77075 1.02014,13.15313 0.25371,2.99654 0.59503,5.98453 0.88728,8.97731 0.0649,0.66432 0.31664,3.00024 0.26858,3.84514 -0.0168,0.29476 -0.13494,0.57484 -0.20241,0.86226 0,0 -0.0252,0.002 -0.0252,0.002 l 0,0 c -0.10094,-0.26946 -0.23558,-0.5286 -0.30282,-0.80837 -0.19663,-0.81807 -0.48535,-3.15384 -0.56568,-3.81113 -0.36559,-2.99162 -0.64996,-5.99247 -0.92353,-8.99363 -0.36954,-4.36674 -0.6561,-8.73863 -0.9828,-13.10833 0,0 0.82644,-0.1179 0.82644,-0.1179 z"
         id="path3760"
         style="color:#000000;fill:#888a85;fill-opacity:1;fill-rule:nonzero;stroke:#5c3566;stroke-width:20;stroke-linecap:butt;stroke-linejoin:round;stroke-miterlimit:4;stroke-opacity:1;stroke-dasharray:none;stroke-dashoffset:0;marker:none;visibility:visible;display:inline;overflow:visible;enable-background:accumulate" />
      <path
         d="m 509.51925,106.47509 c -0.13251,-0.67938 -0.37612,-1.3875 -0.23586,-2.08785 0.0326,-0.16267 0.11043,-0.31289 0.16565,-0.46934 0,0 0.0251,-0.002 0.0251,-0.002 l 0,0 c 0.46483,0.73747 0.72361,1.53384 0.87798,2.39195 0,0 -0.83291,0.1676 -0.83291,0.1676 z"
         id="path3762"
         style="color:#000000;fill:#888a85;fill-opacity:1;fill-rule:nonzero;stroke:#5c3566;stroke-width:20;stroke-linecap:butt;stroke-linejoin:round;stroke-miterlimit:4;stroke-opacity:1;stroke-dasharray:none;stroke-dashoffset:0;marker:none;visibility:visible;display:inline;overflow:visible;enable-background:accumulate" />
      <path
         d="m 543.36088,125.71727 c -0.1773,-0.007 -0.35601,-0.0431 -0.5319,-0.0198 -2.33085,0.30888 -4.79185,2.46836 -6.28332,4.10193 -0.77675,0.85076 -1.44175,1.7972 -2.16262,2.6958 -0.64836,1.10434 -1.38382,2.16196 -1.94507,3.31301 -2.21939,4.55168 -3.33323,10.02698 -1.45505,14.90781 0.40388,1.04956 1.08689,1.96912 1.63034,2.95369 0.76454,0.77199 1.43748,1.647 2.29362,2.31597 2.66037,2.07874 5.9174,2.83488 9.21064,3.0726 1.10449,0.0797 2.22121,0.17656 3.32167,0.053 1.06979,-0.12006 2.08966,-0.51843 3.13449,-0.77765 0,0 0.006,0.0245 0.006,0.0245 l 0,0 c -1.80014,0.46188 -4.67394,1.29318 -6.5308,1.37608 -3.44835,0.15396 -7.13468,-0.89277 -9.86254,-3.04341 -0.92493,-0.72922 -1.63876,-1.69219 -2.45815,-2.53829 -0.57607,-1.06713 -1.30074,-2.06654 -1.72823,-3.20139 -1.93506,-5.13708 -0.79145,-10.88162 1.56368,-15.65966 0.5874,-1.1917 1.35862,-2.28363 2.03792,-3.42544 0.75408,-0.93306 1.4473,-1.91878 2.26223,-2.79919 1.20697,-1.30394 2.66931,-2.52733 4.23674,-3.39072 0.89574,-0.49339 1.79874,-0.80913 2.81621,-0.8386 0.26147,-0.008 0.5176,0.076 0.7764,0.11397 0,0 -0.33243,0.76576 -0.33243,0.76576 z"
         id="path3764"
         style="color:#000000;fill:#888a85;fill-opacity:1;fill-rule:nonzero;stroke:#5c3566;stroke-width:20;stroke-linecap:butt;stroke-linejoin:round;stroke-miterlimit:4;stroke-opacity:1;stroke-dasharray:none;stroke-dashoffset:0;marker:none;visibility:visible;display:inline;overflow:visible;enable-background:accumulate" />
      <path
         d="m 576.08867,124.86491 c -0.33739,-0.20275 -0.44428,-0.30614 -0.885,-0.35795 -2.10653,-0.24763 -4.50189,1.27251 -6.24368,2.19335 -2.96706,1.78858 -5.80957,3.81503 -8.33944,6.19134 -1.29236,1.21392 -3.05404,3.01767 -3.86789,4.68125 -0.29594,0.60493 -0.34359,1.30231 -0.51539,1.95347 0.20576,0.5018 0.2652,1.09288 0.61728,1.5054 1.0144,1.18853 3.24673,1.89672 4.56587,2.28085 2.39595,0.69769 5.085,1.09168 7.53335,1.50279 1.24171,0.2085 2.48456,0.41021 3.72685,0.61532 2.1966,0.51958 7.8685,1.08294 7.16335,4.71654 -0.33468,1.72458 -2.01005,3.26626 -3.0493,4.4686 -2.81269,2.73869 -5.81578,5.28609 -8.91687,7.69206 -1.04257,0.80887 -2.12449,1.56583 -3.17667,2.36216 -0.94827,0.7177 -1.88296,1.45316 -2.82444,2.17973 0,0 -0.0165,-0.0191 -0.0165,-0.0191 l 0,0 c 1.24847,-1.21204 4.20802,-4.10205 5.43291,-5.2185 2.85858,-2.60552 5.91616,-4.99424 8.6313,-7.75727 0.58227,-0.65774 3.45856,-3.38446 2.87054,-4.76119 -0.19249,-0.45068 -0.60424,-0.80155 -1.02328,-1.05565 -1.44419,-0.87573 -3.72876,-1.24903 -5.26416,-1.61182 -2.55544,-0.46703 -5.12265,-0.8733 -7.66705,-1.39721 -2.57481,-0.53018 -7.16831,-1.33141 -8.87951,-3.67837 -0.42888,-0.58821 -0.44183,-1.38727 -0.66275,-2.0809 0.21173,-0.75281 0.29069,-1.55638 0.63519,-2.25843 0.84767,-1.72742 2.69176,-3.61466 4.04104,-4.87733 2.5879,-2.42179 5.49152,-4.49718 8.52975,-6.31068 1.97428,-1.00972 5.42435,-3.10786 7.73893,-1.83941 0.1651,0.0905 0.29379,0.23549 0.44069,0.35324 0,0 -0.59508,0.52769 -0.59508,0.52769 z"
         id="path3766"
         style="color:#000000;fill:#888a85;fill-opacity:1;fill-rule:nonzero;stroke:#5c3566;stroke-width:20;stroke-linecap:butt;stroke-linejoin:round;stroke-miterlimit:4;stroke-opacity:1;stroke-dasharray:none;stroke-dashoffset:0;marker:none;visibility:visible;display:inline;overflow:visible;enable-background:accumulate" />
    </g>
    <g
       id="g3716"
       style="stroke:#473566;stroke-opacity:1;stroke-width:20;stroke-miterlimit:4;stroke-dasharray:none;opacity:0.68808508000000002"
       inkscape:export-filename="/home/klange/amp_logo_big.png"
       inkscape:export-xdpi="90"
       inkscape:export-ydpi="90">
      <path
         style="color:#000000;fill:#888a85;fill-opacity:1;fill-rule:nonzero;stroke:#473566;stroke-width:20;stroke-linecap:butt;stroke-linejoin:round;stroke-miterlimit:4;stroke-opacity:1;stroke-dasharray:none;stroke-dashoffset:0;marker:none;visibility:visible;display:inline;overflow:visible;enable-background:accumulate"
         id="path3718"
         d="m 230.28839,180.59628 c -0.0453,-0.30802 -0.11482,-0.61344 -0.13583,-0.92407 -0.17635,-2.6073 0.13425,-5.46301 0.39452,-8.03749 0.48511,-4.79855 0.74988,-6.35181 1.44067,-11.379 1.97925,-13.19357 4.69456,-26.27777 8.18201,-39.15584 0.58242,-2.15069 1.21923,-4.28627 1.82884,-6.42941 1.82277,-5.88093 3.61489,-11.80289 6.04968,-17.467953 0.12396,-0.24831 0.43152,-1.39542 0.85824,-0.28047 0.0709,0.18518 -0.091,0.38603 -0.13089,0.58026 -0.23681,1.15446 -0.20789,1.10912 -0.40508,2.4477 -0.62498,5.302943 -0.71971,10.672023 -0.3168,15.996823 0.13203,1.74495 0.34476,3.48285 0.51713,5.22427 1.78498,13.31859 5.07654,26.40887 9.07908,39.22393 0.90925,2.91115 1.91248,5.7921 2.86872,8.68815 3.05309,8.80479 6.58624,17.44844 10.82418,25.75193 1.55397,3.04473 2.20131,4.11858 3.81294,6.95454 1.31575,2.44492 3.00172,4.70366 4.11159,7.25972 0.17094,0.39369 0.30211,0.80348 0.45316,1.20522 0,0 -0.0226,0.0112 -0.0226,0.0112 l 0,0 c -1.70148,-2.71719 -3.38226,-5.44779 -5.02052,-8.20361 -1.61244,-2.82401 -2.29185,-3.94758 -3.84165,-6.9771 -4.25795,-8.32336 -7.80389,-16.99134 -10.89359,-25.81102 -0.9629,-2.90083 -1.97283,-5.78647 -2.88871,-8.70249 -3.40837,-10.85173 -6.31011,-21.92102 -8.21894,-33.14144 -0.35007,-2.05779 -0.60527,-4.13061 -0.90791,-6.19591 -0.16988,-1.75245 -0.38032,-3.50144 -0.50965,-5.25735 -0.3952,-5.36589 -0.27793,-10.77365 0.35289,-16.115973 0.20237,-1.35458 0.17457,-1.32258 0.41855,-2.49271 0.0385,-0.18438 -0.0224,-0.43627 0.12739,-0.55048 0.15478,-0.11804 0.39403,-0.0348 0.5839,0.008 0.0423,0.01 -0.049,0.0714 -0.0735,0.10716 -0.0777,0.16766 -0.1555,0.33532 -0.23325,0.50299 -2.41291,5.648313 -4.28174,11.513693 -6.06229,17.385703 -0.60686,2.13927 -1.24152,4.27084 -1.82059,6.4178 -3.46843,12.85949 -6.14774,25.92849 -8.1255,39.09834 -0.68756,5.00264 -0.95542,6.57173 -1.43474,11.34784 -0.26123,2.60304 -0.53302,5.28399 -0.39996,7.90829 0.014,0.27657 0.0625,0.55031 0.0937,0.82547 0,0 -0.55511,0.17695 -0.55511,0.17695 z" />
      <path
         style="color:#000000;fill:#888a85;fill-opacity:1;fill-rule:nonzero;stroke:#473566;stroke-width:20;stroke-linecap:butt;stroke-linejoin:round;stroke-miterlimit:4;stroke-opacity:1;stroke-dasharray:none;stroke-dashoffset:0;marker:none;visibility:visible;display:inline;overflow:visible;enable-background:accumulate"
         id="path3720"
         d="m 222.99178,155.27927 c -1.65306,1.37692 -3.29432,2.76978 -4.77164,4.33638 -0.1252,0.16262 -0.2356,0.33779 -0.3756,0.48786 -0.0623,0.0668 0.11999,-0.14638 0.14015,-0.23546 0.0482,-0.21294 -0.0852,-0.48976 0.0607,-0.65215 0.41922,-0.46649 1.02155,-0.72827 1.52087,-1.10779 2.13755,-1.62474 4.23532,-3.33573 6.32751,-5.01317 7.81012,-6.23893 15.47101,-12.67309 23.45629,-18.69062 2.19514,-1.65421 4.4416,-3.23919 6.66049,-4.86141 2.06281,-1.50812 4.12307,-3.01973 6.18461,-4.5296 0,0 0.0152,0.0202 0.0152,0.0202 l 0,0 c -9.76539,7.56475 -2.43012,1.79455 -12.43116,9.91342 -7.76058,6.30006 -15.58844,12.51747 -23.33101,18.83991 -1.82875,1.46462 -4.40548,3.55667 -6.36335,5.03737 -0.75736,0.57278 -1.75761,1.65605 -2.9248,1.28599 -0.36921,-0.11707 0.51013,-1.22384 0.50954,-1.04432 1.58258,-1.49881 3.19958,-2.97918 5.00041,-4.21496 0,0 0.3218,0.42838 0.3218,0.42838 z" />
      <path
         style="color:#000000;fill:#888a85;fill-opacity:1;fill-rule:nonzero;stroke:#473566;stroke-width:20;stroke-linecap:butt;stroke-linejoin:round;stroke-miterlimit:4;stroke-opacity:1;stroke-dasharray:none;stroke-dashoffset:0;marker:none;visibility:visible;display:inline;overflow:visible;enable-background:accumulate"
         id="path3722"
         d="m 307.58792,117.87324 c -0.94059,-1.62326 -1.99663,-0.69206 -3.21078,0.13198 -0.51023,0.5201 -1.06693,0.99836 -1.53067,1.5603 -1.62567,1.96991 -2.91528,4.11963 -4.07152,6.39798 -1.81775,3.58183 -3.31594,7.30662 -4.54328,11.13105 -0.7297,2.27381 -1.29177,4.59804 -1.93765,6.89707 -1.11071,5.7146 -1.90361,8.50658 -2.06031,14.32065 -0.0577,2.13928 -0.009,4.2944 0.28885,6.41368 0.45034,3.20806 1.4629,6.77287 3.78831,9.21395 0.94112,0.98793 2.27982,1.49975 3.41974,2.24963 1.43928,0.18983 2.86826,0.64877 4.31784,0.5695 3.74777,-0.20494 7.6837,-1.94419 10.878,-3.69925 4.42454,-2.431 8.06776,-5.29553 11.92512,-8.53374 1.90616,-1.6002 3.72051,-3.30667 5.58077,-4.96001 0,0 0.0176,0.0181 0.0176,0.0181 l 0,0 c -1.72508,1.82028 -3.34779,3.74336 -5.17525,5.46084 -3.35803,3.15593 -7.88975,6.65714 -11.93112,8.92708 -3.35745,1.8858 -7.48454,3.69447 -11.44601,3.83849 -1.60598,0.0584 -3.1766,-0.48939 -4.7649,-0.73408 -1.2447,-0.8578 -2.70441,-1.46667 -3.73411,-2.57339 -2.42069,-2.60178 -3.47643,-6.33929 -3.94462,-9.72986 -0.97574,-7.06611 0.34082,-14.18961 1.82478,-21.06787 0.65735,-2.32373 1.22928,-4.67335 1.97205,-6.97121 1.22751,-3.79743 2.80637,-7.72132 4.64062,-11.281 1.16046,-2.25209 2.61705,-4.61658 4.27511,-6.56697 0.51549,-0.60638 1.13432,-1.1167 1.70147,-1.67505 0.46527,-0.28441 0.89485,-0.63778 1.39579,-0.85324 1.36255,-0.58603 2.46713,-0.0228 2.9818,1.26373 0,0 -0.6576,0.25161 -0.6576,0.25161 z" />
      <path
         style="color:#000000;fill:#888a85;fill-opacity:1;fill-rule:nonzero;stroke:#473566;stroke-width:20;stroke-linecap:butt;stroke-linejoin:round;stroke-miterlimit:4;stroke-opacity:1;stroke-dasharray:none;stroke-dashoffset:0;marker:none;visibility:visible;display:inline;overflow:visible;enable-background:accumulate"
         id="path3724"
         d="m 360.2626,121.30474 c -1.21977,1.0227 -2.04292,2.48167 -2.77152,3.87063 -1.18055,2.25052 -1.57293,3.33529 -2.60715,5.77596 -1.64255,4.24305 -3.05708,8.59912 -3.88838,13.08174 -0.52348,2.8228 -0.93251,6.14696 -0.68844,9.0398 0.10523,1.24721 0.47835,2.45716 0.71752,3.68573 0.51711,0.90837 0.84657,1.9532 1.55132,2.72511 1.43962,1.57681 3.40503,2.06505 5.46976,1.89717 2.8174,-0.22908 5.74445,-1.59358 8.08237,-3.04383 1.53597,-0.95279 2.90969,-2.14515 4.36454,-3.21773 1.34652,-1.35476 2.80634,-2.60562 4.03957,-4.06426 4.3148,-5.1035 7.75062,-12.01212 6.29327,-18.88106 -0.28906,-1.36245 -0.99956,-2.60003 -1.49934,-3.90004 -0.85376,-1.04552 -1.56867,-2.22182 -2.56129,-3.13654 -1.91591,-1.76556 -4.88328,-3.27574 -7.35243,-4.01047 -1.38838,-0.41313 -2.84872,-0.52713 -4.27308,-0.7907 0,0 0.004,-0.0249 0.004,-0.0249 l 0,0 c 3.16226,0.43822 5.6408,0.54322 8.59859,1.91724 3.71928,1.72776 3.91722,2.6577 6.44191,5.71641 0.53203,1.39013 1.28908,2.71392 1.59608,4.17037 1.50687,7.14871 -2.04242,14.33263 -6.55315,19.63236 -1.27009,1.49225 -2.77178,2.77074 -4.15768,4.15611 -1.50288,1.10091 -2.92075,2.32842 -4.50863,3.30273 -4.1443,2.54288 -10.88951,5.25198 -14.83867,0.75447 -0.75747,-0.86265 -1.10547,-2.01237 -1.6582,-3.01855 -0.24332,-1.29347 -0.62453,-2.56849 -0.72996,-3.88042 -0.23874,-2.97072 0.1923,-6.34552 0.73531,-9.24449 0.84973,-4.53643 2.27362,-8.94624 3.95963,-13.2338 1.15727,-2.65619 1.41447,-3.42535 2.72968,-5.83827 0.71477,-1.31134 1.53514,-2.76045 2.68582,-3.75913 0.15996,-0.13884 0.35231,-0.23523 0.52846,-0.35284 0,0 0.29006,0.67123 0.29006,0.67123 z" />
      <path
         style="color:#000000;fill:#888a85;fill-opacity:1;fill-rule:nonzero;stroke:#473566;stroke-width:20;stroke-linecap:butt;stroke-linejoin:round;stroke-miterlimit:4;stroke-opacity:1;stroke-dasharray:none;stroke-dashoffset:0;marker:none;visibility:visible;display:inline;overflow:visible;enable-background:accumulate"
         id="path3726"
         d="m 392.13159,117.86322 c -0.73382,4.13711 -1.35738,8.29736 -1.73257,12.48392 -0.13802,1.54003 -0.22426,3.08426 -0.33638,4.62639 -0.203,4.85501 -0.2215,9.77064 0.75758,14.55718 0.51072,2.49685 1.33722,5.26339 2.77294,7.42626 0.56534,0.85165 1.37781,1.5104 2.06672,2.2656 0.80211,0.36367 1.54234,0.92025 2.40633,1.09101 1.94012,0.38342 3.93328,-0.33462 5.55527,-1.31611 2.29932,-1.39136 4.28397,-3.49681 5.86966,-5.62438 0.96303,-1.29215 1.73895,-2.71373 2.60842,-4.0706 0.73489,-1.52474 1.54512,-3.01542 2.20467,-4.57423 1.26111,-2.98055 2.2227,-6.10174 2.97737,-9.24561 0.53778,-2.24033 1.00452,-4.83452 1.16062,-7.16046 0.0493,-0.73418 -0.004,-1.47166 -0.006,-2.2075 -0.10156,-0.34817 -0.12611,-0.72883 -0.30468,-1.04451 -0.0676,-0.11957 -0.0236,0.27472 -0.0551,0.40841 -0.0827,0.35035 -0.18779,0.69504 -0.28696,1.04108 -0.78222,2.72919 -0.93683,2.83147 -1.34477,5.99304 -0.18683,1.44795 -0.25766,2.90852 -0.38649,4.36278 -0.16219,4.74064 0.16011,9.5211 1.51938,14.09162 0.70401,2.36722 1.71425,4.74856 3.2448,6.71755 0.55813,0.718 1.3018,1.27023 1.9527,1.90534 0.68136,0.33863 1.36272,0.67726 2.04409,1.01589 0,0 -0.008,0.0238 -0.008,0.0238 l 0,0 c -0.8183,-0.19004 -1.6366,-0.38007 -2.4549,-0.5701 -0.7665,-0.63018 -1.6494,-1.14086 -2.2995,-1.89054 -1.65349,-1.90678 -2.79191,-4.60972 -3.50765,-6.96897 -1.41754,-4.67253 -1.7265,-9.56988 -1.56827,-14.42094 0.31644,-3.50989 0.29564,-4.81765 1.08018,-8.13168 0.21176,-0.89454 0.42408,-1.8026 0.81491,-2.63465 0.3062,-0.65186 1.16563,-2.46695 2.22534,-1.20084 0.28758,0.34359 0.21414,0.87016 0.32121,1.30524 -0.006,0.77269 0.0386,1.54741 -0.0178,2.31807 -0.1702,2.32939 -0.65651,5.06992 -1.19634,7.3042 -0.76664,3.17295 -1.77483,6.3956 -3.05674,9.39864 -0.67916,1.591 -1.51224,3.11179 -2.26836,4.66769 -0.89803,1.39338 -1.698,2.85511 -2.69411,4.18015 -1.65538,2.20201 -3.79846,4.45515 -6.21417,5.86496 -1.90993,1.11463 -4.07031,1.80403 -6.30074,1.29868 -0.97564,-0.22105 -1.80108,-0.87128 -2.70162,-1.30692 -0.73679,-0.82599 -1.60324,-1.5525 -2.21039,-2.47797 -1.46967,-2.24016 -2.33327,-5.12775 -2.85387,-7.70729 -0.97887,-4.85025 -0.95257,-9.83389 -0.74166,-14.75059 0.11802,-1.55234 0.20972,-3.10691 0.35407,-4.65703 0.39141,-4.20335 0.99493,-8.39652 1.83953,-12.53262 0,0 0.7718,0.14602 0.7718,0.14602 z" />
      <path
         style="color:#000000;fill:#888a85;fill-opacity:1;fill-rule:nonzero;stroke:#473566;stroke-width:20;stroke-linecap:butt;stroke-linejoin:round;stroke-miterlimit:4;stroke-opacity:1;stroke-dasharray:none;stroke-dashoffset:0;marker:none;visibility:visible;display:inline;overflow:visible;enable-background:accumulate"
         id="path3728"
         d="m 448.14974,116.29309 c -2.56269,0.22523 -4.64697,2.01401 -6.57181,3.55208 -1.72692,1.54341 -3.37309,3.21142 -4.65776,5.15147 -0.57044,0.86146 -1.34347,2.16373 -1.42243,3.27076 -0.0275,0.38619 0.16137,0.75733 0.24205,1.13599 0.30631,0.2518 0.56396,0.5787 0.91893,0.75541 1.93221,0.96185 5.3687,1.02677 7.45153,1.18379 4.89491,0.369 1.98375,0.0846 6.8499,0.63823 1.03363,0.21452 2.08751,0.34787 3.10091,0.64358 2.29357,0.66927 4.8547,1.89087 5.45852,4.47866 0.49491,2.12105 -0.26084,3.41335 -0.904,5.40152 -0.56366,1.06223 -1.07547,2.15363 -1.69097,3.18667 -1.28134,2.15057 -3.31195,4.95262 -4.80132,6.93617 -0.85969,1.14495 -1.72374,2.28766 -2.63233,3.39421 -4.56792,5.56315 -0.80977,0.44263 -4.54695,5.73204 0,0 -0.0207,-0.0145 -0.0207,-0.0145 l 0,0 c 5.3042,-7.68253 -1.78621,2.72115 3.93788,-6.17871 2.87942,-4.47696 6.39959,-8.56624 8.67882,-13.4147 0.53726,-1.55716 1.25511,-2.86991 0.97534,-4.56601 -0.56006,-3.39541 -5.01815,-4.06837 -7.66864,-4.66002 -4.52395,-0.5789 -2.21975,-0.33981 -6.80534,-0.70069 -2.17197,-0.17092 -6.05928,-0.22591 -7.99334,-1.41755 -0.48809,-0.30073 -0.79102,-0.83006 -1.18653,-1.24509 -0.0748,-0.51341 -0.27016,-1.02344 -0.2243,-1.54024 0.10584,-1.19297 0.94285,-2.62345 1.56847,-3.56098 1.33181,-1.99578 3.03238,-3.72213 4.81643,-5.31025 1.92532,-1.51871 4.0595,-3.29585 6.60068,-3.59144 0.20113,-0.0234 0.40495,-0.005 0.60742,-0.007 0,0 -0.0805,0.74663 -0.0805,0.74663 z" />
      <path
         style="color:#000000;fill:#888a85;fill-opacity:1;fill-rule:nonzero;stroke:#473566;stroke-width:20;stroke-linecap:butt;stroke-linejoin:round;stroke-miterlimit:4;stroke-opacity:1;stroke-dasharray:none;stroke-dashoffset:0;marker:none;visibility:visible;display:inline;overflow:visible;enable-background:accumulate"
         id="path3730"
         d="m 489.3486,101.68422 c 0.44648,-1.62202 1.10892,-3.174903 1.85178,-4.680943 0.16646,-0.23814 0.51625,-0.98112 1.038,-0.38927 0.42364,0.48054 0.20908,2.54829 0.19143,2.85098 -0.0992,1.700613 -0.36944,4.812093 -0.49688,6.353513 -0.60442,7.15565 -1.096,14.32461 -1.272,21.50511 -0.12476,5.09017 -0.0664,6.21145 -0.005,11.21885 0.0491,5.69237 0.74665,11.35825 0.6824,17.05084 0,0 -0.0252,0.002 -0.0252,0.002 l 0,0 c -0.27737,-1.47272 -0.5674,-2.9244 -0.75811,-4.41478 -0.53566,-4.18612 -0.71818,-8.41232 -0.85779,-12.62611 -0.0238,-1.8188 -0.072,-3.63744 -0.0715,-5.45639 0.003,-9.13645 0.58635,-18.25935 1.39178,-27.35665 0.12421,-1.4547 0.40968,-4.67645 0.51662,-6.313843 0.0354,-0.54141 0.0209,-1.08613 0.0755,-1.62594 0.0166,-0.16453 0.0348,-0.3469 0.13724,-0.47675 0.0956,-0.12125 0.26488,-0.27067 0.40949,-0.21654 0.11544,0.0432 -0.1618,0.18598 -0.24271,0.27897 -0.83346,1.41688 -1.50222,2.920183 -2.12587,4.439563 0,0 -0.43916,-0.14282 -0.43916,-0.14282 z" />
      <path
         style="color:#000000;fill:#888a85;fill-opacity:1;fill-rule:nonzero;stroke:#473566;stroke-width:20;stroke-linecap:butt;stroke-linejoin:round;stroke-miterlimit:4;stroke-opacity:1;stroke-dasharray:none;stroke-dashoffset:0;marker:none;visibility:visible;display:inline;overflow:visible;enable-background:accumulate"
         id="path3732"
         d="m 461.88091,138.46468 c 6.5256,-3.25787 13.12594,-6.35857 19.75863,-9.39119 6.81343,-3.00719 13.64257,-6.01032 20.6474,-8.55184 1.19316,-0.43291 2.40206,-0.82111 3.60308,-1.23166 0,0 0.01,0.0234 0.01,0.0234 l 0,0 c -1.14308,0.55028 -2.27838,1.11701 -3.42924,1.65084 -6.74867,3.13043 -13.65459,5.91137 -20.40472,9.03916 -6.61766,3.03928 -13.20346,6.14515 -19.72624,9.38393 0,0 -0.45849,-0.92261 -0.45849,-0.92261 z" />
      <path
         style="color:#000000;fill:#888a85;fill-opacity:1;fill-rule:nonzero;stroke:#473566;stroke-width:20;stroke-linecap:butt;stroke-linejoin:round;stroke-miterlimit:4;stroke-opacity:1;stroke-dasharray:none;stroke-dashoffset:0;marker:none;visibility:visible;display:inline;overflow:visible;enable-background:accumulate"
         id="path3734"
         d="m 510.55676,132.50673 c 0.37854,4.381 0.64922,8.77075 1.02014,13.15313 0.25371,2.99654 0.59503,5.98453 0.88728,8.97731 0.0649,0.66432 0.31664,3.00024 0.26858,3.84514 -0.0168,0.29476 -0.13494,0.57484 -0.20241,0.86226 0,0 -0.0252,0.002 -0.0252,0.002 l 0,0 c -0.10094,-0.26946 -0.23558,-0.5286 -0.30282,-0.80837 -0.19663,-0.81807 -0.48535,-3.15384 -0.56568,-3.81113 -0.36559,-2.99162 -0.64996,-5.99247 -0.92353,-8.99363 -0.36954,-4.36674 -0.6561,-8.73863 -0.9828,-13.10833 0,0 0.82644,-0.1179 0.82644,-0.1179 z" />
      <path
         style="color:#000000;fill:#888a85;fill-opacity:1;fill-rule:nonzero;stroke:#473566;stroke-width:20;stroke-linecap:butt;stroke-linejoin:round;stroke-miterlimit:4;stroke-opacity:1;stroke-dasharray:none;stroke-dashoffset:0;marker:none;visibility:visible;display:inline;overflow:visible;enable-background:accumulate"
         id="path3736"
         d="m 509.51925,106.47509 c -0.13251,-0.67938 -0.37612,-1.3875 -0.23586,-2.08785 0.0326,-0.16267 0.11043,-0.31289 0.16565,-0.46934 0,0 0.0251,-0.002 0.0251,-0.002 l 0,0 c 0.46483,0.73747 0.72361,1.53384 0.87798,2.39195 0,0 -0.83291,0.1676 -0.83291,0.1676 z" />
      <path
         style="color:#000000;fill:#888a85;fill-opacity:1;fill-rule:nonzero;stroke:#473566;stroke-width:20;stroke-linecap:butt;stroke-linejoin:round;stroke-miterlimit:4;stroke-opacity:1;stroke-dasharray:none;stroke-dashoffset:0;marker:none;visibility:visible;display:inline;overflow:visible;enable-background:accumulate"
         id="path3738"
         d="m 543.36088,125.71727 c -0.1773,-0.007 -0.35601,-0.0431 -0.5319,-0.0198 -2.33085,0.30888 -4.79185,2.46836 -6.28332,4.10193 -0.77675,0.85076 -1.44175,1.7972 -2.16262,2.6958 -0.64836,1.10434 -1.38382,2.16196 -1.94507,3.31301 -2.21939,4.55168 -3.33323,10.02698 -1.45505,14.90781 0.40388,1.04956 1.08689,1.96912 1.63034,2.95369 0.76454,0.77199 1.43748,1.647 2.29362,2.31597 2.66037,2.07874 5.9174,2.83488 9.21064,3.0726 1.10449,0.0797 2.22121,0.17656 3.32167,0.053 1.06979,-0.12006 2.08966,-0.51843 3.13449,-0.77765 0,0 0.006,0.0245 0.006,0.0245 l 0,0 c -1.80014,0.46188 -4.67394,1.29318 -6.5308,1.37608 -3.44835,0.15396 -7.13468,-0.89277 -9.86254,-3.04341 -0.92493,-0.72922 -1.63876,-1.69219 -2.45815,-2.53829 -0.57607,-1.06713 -1.30074,-2.06654 -1.72823,-3.20139 -1.93506,-5.13708 -0.79145,-10.88162 1.56368,-15.65966 0.5874,-1.1917 1.35862,-2.28363 2.03792,-3.42544 0.75408,-0.93306 1.4473,-1.91878 2.26223,-2.79919 1.20697,-1.30394 2.66931,-2.52733 4.23674,-3.39072 0.89574,-0.49339 1.79874,-0.80913 2.81621,-0.8386 0.26147,-0.008 0.5176,0.076 0.7764,0.11397 0,0 -0.33243,0.76576 -0.33243,0.76576 z" />
      <path
         style="color:#000000;fill:#888a85;fill-opacity:1;fill-rule:nonzero;stroke:#473566;stroke-width:20;stroke-linecap:butt;stroke-linejoin:round;stroke-miterlimit:4;stroke-opacity:1;stroke-dasharray:none;stroke-dashoffset:0;marker:none;visibility:visible;display:inline;overflow:visible;enable-background:accumulate"
         id="path3740"
         d="m 576.08867,124.86491 c -0.33739,-0.20275 -0.44428,-0.30614 -0.885,-0.35795 -2.10653,-0.24763 -4.50189,1.27251 -6.24368,2.19335 -2.96706,1.78858 -5.80957,3.81503 -8.33944,6.19134 -1.29236,1.21392 -3.05404,3.01767 -3.86789,4.68125 -0.29594,0.60493 -0.34359,1.30231 -0.51539,1.95347 0.20576,0.5018 0.2652,1.09288 0.61728,1.5054 1.0144,1.18853 3.24673,1.89672 4.56587,2.28085 2.39595,0.69769 5.085,1.09168 7.53335,1.50279 1.24171,0.2085 2.48456,0.41021 3.72685,0.61532 2.1966,0.51958 7.8685,1.08294 7.16335,4.71654 -0.33468,1.72458 -2.01005,3.26626 -3.0493,4.4686 -2.81269,2.73869 -5.81578,5.28609 -8.91687,7.69206 -1.04257,0.80887 -2.12449,1.56583 -3.17667,2.36216 -0.94827,0.7177 -1.88296,1.45316 -2.82444,2.17973 0,0 -0.0165,-0.0191 -0.0165,-0.0191 l 0,0 c 1.24847,-1.21204 4.20802,-4.10205 5.43291,-5.2185 2.85858,-2.60552 5.91616,-4.99424 8.6313,-7.75727 0.58227,-0.65774 3.45856,-3.38446 2.87054,-4.76119 -0.19249,-0.45068 -0.60424,-0.80155 -1.02328,-1.05565 -1.44419,-0.87573 -3.72876,-1.24903 -5.26416,-1.61182 -2.55544,-0.46703 -5.12265,-0.8733 -7.66705,-1.39721 -2.57481,-0.53018 -7.16831,-1.33141 -8.87951,-3.67837 -0.42888,-0.58821 -0.44183,-1.38727 -0.66275,-2.0809 0.21173,-0.75281 0.29069,-1.55638 0.63519,-2.25843 0.84767,-1.72742 2.69176,-3.61466 4.04104,-4.87733 2.5879,-2.42179 5.49152,-4.49718 8.52975,-6.31068 1.97428,-1.00972 5.42435,-3.10786 7.73893,-1.83941 0.1651,0.0905 0.29379,0.23549 0.44069,0.35324 0,0 -0.59508,0.52769 -0.59508,0.52769 z" />
    </g>
    <g
       id="g3702"
       style="stroke:#ffffff;stroke-opacity:1"
       inkscape:export-filename="/home/klange/amp_logo_big.png"
       inkscape:export-xdpi="90"
       inkscape:export-ydpi="90">
      <path
         d="m 230.28839,180.59628 c -0.0453,-0.30802 -0.11482,-0.61344 -0.13583,-0.92407 -0.17635,-2.6073 0.13425,-5.46301 0.39452,-8.03749 0.48511,-4.79855 0.74988,-6.35181 1.44067,-11.379 1.97925,-13.19357 4.69456,-26.27777 8.18201,-39.15584 0.58242,-2.15069 1.21923,-4.28627 1.82884,-6.42941 1.82277,-5.88093 3.61489,-11.80289 6.04968,-17.467953 0.12396,-0.24831 0.43152,-1.39542 0.85824,-0.28047 0.0709,0.18518 -0.091,0.38603 -0.13089,0.58026 -0.23681,1.15446 -0.20789,1.10912 -0.40508,2.4477 -0.62498,5.302943 -0.71971,10.672023 -0.3168,15.996823 0.13203,1.74495 0.34476,3.48285 0.51713,5.22427 1.78498,13.31859 5.07654,26.40887 9.07908,39.22393 0.90925,2.91115 1.91248,5.7921 2.86872,8.68815 3.05309,8.80479 6.58624,17.44844 10.82418,25.75193 1.55397,3.04473 2.20131,4.11858 3.81294,6.95454 1.31575,2.44492 3.00172,4.70366 4.11159,7.25972 0.17094,0.39369 0.30211,0.80348 0.45316,1.20522 0,0 -0.0226,0.0112 -0.0226,0.0112 l 0,0 c -1.70148,-2.71719 -3.38226,-5.44779 -5.02052,-8.20361 -1.61244,-2.82401 -2.29185,-3.94758 -3.84165,-6.9771 -4.25795,-8.32336 -7.80389,-16.99134 -10.89359,-25.81102 -0.9629,-2.90083 -1.97283,-5.78647 -2.88871,-8.70249 -3.40837,-10.85173 -6.31011,-21.92102 -8.21894,-33.14144 -0.35007,-2.05779 -0.60527,-4.13061 -0.90791,-6.19591 -0.16988,-1.75245 -0.38032,-3.50144 -0.50965,-5.25735 -0.3952,-5.36589 -0.27793,-10.77365 0.35289,-16.115973 0.20237,-1.35458 0.17457,-1.32258 0.41855,-2.49271 0.0385,-0.18438 -0.0224,-0.43627 0.12739,-0.55048 0.15478,-0.11804 0.39403,-0.0348 0.5839,0.008 0.0423,0.01 -0.049,0.0714 -0.0735,0.10716 -0.0777,0.16766 -0.1555,0.33532 -0.23325,0.50299 -2.41291,5.648313 -4.28174,11.513693 -6.06229,17.385703 -0.60686,2.13927 -1.24152,4.27084 -1.82059,6.4178 -3.46843,12.85949 -6.14774,25.92849 -8.1255,39.09834 -0.68756,5.00264 -0.95542,6.57173 -1.43474,11.34784 -0.26123,2.60304 -0.53302,5.28399 -0.39996,7.90829 0.014,0.27657 0.0625,0.55031 0.0937,0.82547 0,0 -0.55511,0.17695 -0.55511,0.17695 z"
         id="path2831"
         style="color:#000000;fill:#888a85;fill-opacity:1;fill-rule:nonzero;stroke:#ffffff;stroke-width:4;stroke-linecap:butt;stroke-linejoin:round;stroke-miterlimit:4;stroke-opacity:1;stroke-dasharray:none;stroke-dashoffset:0;marker:none;visibility:visible;display:inline;overflow:visible;enable-background:accumulate" />
      <path
         d="m 222.99178,155.27927 c -1.65306,1.37692 -3.29432,2.76978 -4.77164,4.33638 -0.1252,0.16262 -0.2356,0.33779 -0.3756,0.48786 -0.0623,0.0668 0.11999,-0.14638 0.14015,-0.23546 0.0482,-0.21294 -0.0852,-0.48976 0.0607,-0.65215 0.41922,-0.46649 1.02155,-0.72827 1.52087,-1.10779 2.13755,-1.62474 4.23532,-3.33573 6.32751,-5.01317 7.81012,-6.23893 15.47101,-12.67309 23.45629,-18.69062 2.19514,-1.65421 4.4416,-3.23919 6.66049,-4.86141 2.06281,-1.50812 4.12307,-3.01973 6.18461,-4.5296 0,0 0.0152,0.0202 0.0152,0.0202 l 0,0 c -9.76539,7.56475 -2.43012,1.79455 -12.43116,9.91342 -7.76058,6.30006 -15.58844,12.51747 -23.33101,18.83991 -1.82875,1.46462 -4.40548,3.55667 -6.36335,5.03737 -0.75736,0.57278 -1.75761,1.65605 -2.9248,1.28599 -0.36921,-0.11707 0.51013,-1.22384 0.50954,-1.04432 1.58258,-1.49881 3.19958,-2.97918 5.00041,-4.21496 0,0 0.3218,0.42838 0.3218,0.42838 z"
         id="path2833"
         style="color:#000000;fill:#888a85;fill-opacity:1;fill-rule:nonzero;stroke:#ffffff;stroke-width:4;stroke-linecap:butt;stroke-linejoin:round;stroke-miterlimit:4;stroke-opacity:1;stroke-dasharray:none;stroke-dashoffset:0;marker:none;visibility:visible;display:inline;overflow:visible;enable-background:accumulate" />
      <path
         d="m 307.58792,117.87324 c -0.94059,-1.62326 -1.99663,-0.69206 -3.21078,0.13198 -0.51023,0.5201 -1.06693,0.99836 -1.53067,1.5603 -1.62567,1.96991 -2.91528,4.11963 -4.07152,6.39798 -1.81775,3.58183 -3.31594,7.30662 -4.54328,11.13105 -0.7297,2.27381 -1.29177,4.59804 -1.93765,6.89707 -1.11071,5.7146 -1.90361,8.50658 -2.06031,14.32065 -0.0577,2.13928 -0.009,4.2944 0.28885,6.41368 0.45034,3.20806 1.4629,6.77287 3.78831,9.21395 0.94112,0.98793 2.27982,1.49975 3.41974,2.24963 1.43928,0.18983 2.86826,0.64877 4.31784,0.5695 3.74777,-0.20494 7.6837,-1.94419 10.878,-3.69925 4.42454,-2.431 8.06776,-5.29553 11.92512,-8.53374 1.90616,-1.6002 3.72051,-3.30667 5.58077,-4.96001 0,0 0.0176,0.0181 0.0176,0.0181 l 0,0 c -1.72508,1.82028 -3.34779,3.74336 -5.17525,5.46084 -3.35803,3.15593 -7.88975,6.65714 -11.93112,8.92708 -3.35745,1.8858 -7.48454,3.69447 -11.44601,3.83849 -1.60598,0.0584 -3.1766,-0.48939 -4.7649,-0.73408 -1.2447,-0.8578 -2.70441,-1.46667 -3.73411,-2.57339 -2.42069,-2.60178 -3.47643,-6.33929 -3.94462,-9.72986 -0.97574,-7.06611 0.34082,-14.18961 1.82478,-21.06787 0.65735,-2.32373 1.22928,-4.67335 1.97205,-6.97121 1.22751,-3.79743 2.80637,-7.72132 4.64062,-11.281 1.16046,-2.25209 2.61705,-4.61658 4.27511,-6.56697 0.51549,-0.60638 1.13432,-1.1167 1.70147,-1.67505 0.46527,-0.28441 0.89485,-0.63778 1.39579,-0.85324 1.36255,-0.58603 2.46713,-0.0228 2.9818,1.26373 0,0 -0.6576,0.25161 -0.6576,0.25161 z"
         id="path2835"
         style="color:#000000;fill:#888a85;fill-opacity:1;fill-rule:nonzero;stroke:#ffffff;stroke-width:4;stroke-linecap:butt;stroke-linejoin:round;stroke-miterlimit:4;stroke-opacity:1;stroke-dasharray:none;stroke-dashoffset:0;marker:none;visibility:visible;display:inline;overflow:visible;enable-background:accumulate" />
      <path
         d="m 360.2626,121.30474 c -1.21977,1.0227 -2.04292,2.48167 -2.77152,3.87063 -1.18055,2.25052 -1.57293,3.33529 -2.60715,5.77596 -1.64255,4.24305 -3.05708,8.59912 -3.88838,13.08174 -0.52348,2.8228 -0.93251,6.14696 -0.68844,9.0398 0.10523,1.24721 0.47835,2.45716 0.71752,3.68573 0.51711,0.90837 0.84657,1.9532 1.55132,2.72511 1.43962,1.57681 3.40503,2.06505 5.46976,1.89717 2.8174,-0.22908 5.74445,-1.59358 8.08237,-3.04383 1.53597,-0.95279 2.90969,-2.14515 4.36454,-3.21773 1.34652,-1.35476 2.80634,-2.60562 4.03957,-4.06426 4.3148,-5.1035 7.75062,-12.01212 6.29327,-18.88106 -0.28906,-1.36245 -0.99956,-2.60003 -1.49934,-3.90004 -0.85376,-1.04552 -1.56867,-2.22182 -2.56129,-3.13654 -1.91591,-1.76556 -4.88328,-3.27574 -7.35243,-4.01047 -1.38838,-0.41313 -2.84872,-0.52713 -4.27308,-0.7907 0,0 0.004,-0.0249 0.004,-0.0249 l 0,0 c 3.16226,0.43822 5.6408,0.54322 8.59859,1.91724 3.71928,1.72776 3.91722,2.6577 6.44191,5.71641 0.53203,1.39013 1.28908,2.71392 1.59608,4.17037 1.50687,7.14871 -2.04242,14.33263 -6.55315,19.63236 -1.27009,1.49225 -2.77178,2.77074 -4.15768,4.15611 -1.50288,1.10091 -2.92075,2.32842 -4.50863,3.30273 -4.1443,2.54288 -10.88951,5.25198 -14.83867,0.75447 -0.75747,-0.86265 -1.10547,-2.01237 -1.6582,-3.01855 -0.24332,-1.29347 -0.62453,-2.56849 -0.72996,-3.88042 -0.23874,-2.97072 0.1923,-6.34552 0.73531,-9.24449 0.84973,-4.53643 2.27362,-8.94624 3.95963,-13.2338 1.15727,-2.65619 1.41447,-3.42535 2.72968,-5.83827 0.71477,-1.31134 1.53514,-2.76045 2.68582,-3.75913 0.15996,-0.13884 0.35231,-0.23523 0.52846,-0.35284 0,0 0.29006,0.67123 0.29006,0.67123 z"
         id="path2837"
         style="color:#000000;fill:#888a85;fill-opacity:1;fill-rule:nonzero;stroke:#ffffff;stroke-width:4;stroke-linecap:butt;stroke-linejoin:round;stroke-miterlimit:4;stroke-opacity:1;stroke-dasharray:none;stroke-dashoffset:0;marker:none;visibility:visible;display:inline;overflow:visible;enable-background:accumulate" />
      <path
         d="m 392.13159,117.86322 c -0.73382,4.13711 -1.35738,8.29736 -1.73257,12.48392 -0.13802,1.54003 -0.22426,3.08426 -0.33638,4.62639 -0.203,4.85501 -0.2215,9.77064 0.75758,14.55718 0.51072,2.49685 1.33722,5.26339 2.77294,7.42626 0.56534,0.85165 1.37781,1.5104 2.06672,2.2656 0.80211,0.36367 1.54234,0.92025 2.40633,1.09101 1.94012,0.38342 3.93328,-0.33462 5.55527,-1.31611 2.29932,-1.39136 4.28397,-3.49681 5.86966,-5.62438 0.96303,-1.29215 1.73895,-2.71373 2.60842,-4.0706 0.73489,-1.52474 1.54512,-3.01542 2.20467,-4.57423 1.26111,-2.98055 2.2227,-6.10174 2.97737,-9.24561 0.53778,-2.24033 1.00452,-4.83452 1.16062,-7.16046 0.0493,-0.73418 -0.004,-1.47166 -0.006,-2.2075 -0.10156,-0.34817 -0.12611,-0.72883 -0.30468,-1.04451 -0.0676,-0.11957 -0.0236,0.27472 -0.0551,0.40841 -0.0827,0.35035 -0.18779,0.69504 -0.28696,1.04108 -0.78222,2.72919 -0.93683,2.83147 -1.34477,5.99304 -0.18683,1.44795 -0.25766,2.90852 -0.38649,4.36278 -0.16219,4.74064 0.16011,9.5211 1.51938,14.09162 0.70401,2.36722 1.71425,4.74856 3.2448,6.71755 0.55813,0.718 1.3018,1.27023 1.9527,1.90534 0.68136,0.33863 1.36272,0.67726 2.04409,1.01589 0,0 -0.008,0.0238 -0.008,0.0238 l 0,0 c -0.8183,-0.19004 -1.6366,-0.38007 -2.4549,-0.5701 -0.7665,-0.63018 -1.6494,-1.14086 -2.2995,-1.89054 -1.65349,-1.90678 -2.79191,-4.60972 -3.50765,-6.96897 -1.41754,-4.67253 -1.7265,-9.56988 -1.56827,-14.42094 0.31644,-3.50989 0.29564,-4.81765 1.08018,-8.13168 0.21176,-0.89454 0.42408,-1.8026 0.81491,-2.63465 0.3062,-0.65186 1.16563,-2.46695 2.22534,-1.20084 0.28758,0.34359 0.21414,0.87016 0.32121,1.30524 -0.006,0.77269 0.0386,1.54741 -0.0178,2.31807 -0.1702,2.32939 -0.65651,5.06992 -1.19634,7.3042 -0.76664,3.17295 -1.77483,6.3956 -3.05674,9.39864 -0.67916,1.591 -1.51224,3.11179 -2.26836,4.66769 -0.89803,1.39338 -1.698,2.85511 -2.69411,4.18015 -1.65538,2.20201 -3.79846,4.45515 -6.21417,5.86496 -1.90993,1.11463 -4.07031,1.80403 -6.30074,1.29868 -0.97564,-0.22105 -1.80108,-0.87128 -2.70162,-1.30692 -0.73679,-0.82599 -1.60324,-1.5525 -2.21039,-2.47797 -1.46967,-2.24016 -2.33327,-5.12775 -2.85387,-7.70729 -0.97887,-4.85025 -0.95257,-9.83389 -0.74166,-14.75059 0.11802,-1.55234 0.20972,-3.10691 0.35407,-4.65703 0.39141,-4.20335 0.99493,-8.39652 1.83953,-12.53262 0,0 0.7718,0.14602 0.7718,0.14602 z"
         id="path2839"
         style="color:#000000;fill:#888a85;fill-opacity:1;fill-rule:nonzero;stroke:#ffffff;stroke-width:4;stroke-linecap:butt;stroke-linejoin:round;stroke-miterlimit:4;stroke-opacity:1;stroke-dasharray:none;stroke-dashoffset:0;marker:none;visibility:visible;display:inline;overflow:visible;enable-background:accumulate" />
      <path
         d="m 448.14974,116.29309 c -2.56269,0.22523 -4.64697,2.01401 -6.57181,3.55208 -1.72692,1.54341 -3.37309,3.21142 -4.65776,5.15147 -0.57044,0.86146 -1.34347,2.16373 -1.42243,3.27076 -0.0275,0.38619 0.16137,0.75733 0.24205,1.13599 0.30631,0.2518 0.56396,0.5787 0.91893,0.75541 1.93221,0.96185 5.3687,1.02677 7.45153,1.18379 4.89491,0.369 1.98375,0.0846 6.8499,0.63823 1.03363,0.21452 2.08751,0.34787 3.10091,0.64358 2.29357,0.66927 4.8547,1.89087 5.45852,4.47866 0.49491,2.12105 -0.26084,3.41335 -0.904,5.40152 -0.56366,1.06223 -1.07547,2.15363 -1.69097,3.18667 -1.28134,2.15057 -3.31195,4.95262 -4.80132,6.93617 -0.85969,1.14495 -1.72374,2.28766 -2.63233,3.39421 -4.56792,5.56315 -0.80977,0.44263 -4.54695,5.73204 0,0 -0.0207,-0.0145 -0.0207,-0.0145 l 0,0 c 5.3042,-7.68253 -1.78621,2.72115 3.93788,-6.17871 2.87942,-4.47696 6.39959,-8.56624 8.67882,-13.4147 0.53726,-1.55716 1.25511,-2.86991 0.97534,-4.56601 -0.56006,-3.39541 -5.01815,-4.06837 -7.66864,-4.66002 -4.52395,-0.5789 -2.21975,-0.33981 -6.80534,-0.70069 -2.17197,-0.17092 -6.05928,-0.22591 -7.99334,-1.41755 -0.48809,-0.30073 -0.79102,-0.83006 -1.18653,-1.24509 -0.0748,-0.51341 -0.27016,-1.02344 -0.2243,-1.54024 0.10584,-1.19297 0.94285,-2.62345 1.56847,-3.56098 1.33181,-1.99578 3.03238,-3.72213 4.81643,-5.31025 1.92532,-1.51871 4.0595,-3.29585 6.60068,-3.59144 0.20113,-0.0234 0.40495,-0.005 0.60742,-0.007 0,0 -0.0805,0.74663 -0.0805,0.74663 z"
         id="path2841"
         style="color:#000000;fill:#888a85;fill-opacity:1;fill-rule:nonzero;stroke:#ffffff;stroke-width:4;stroke-linecap:butt;stroke-linejoin:round;stroke-miterlimit:4;stroke-opacity:1;stroke-dasharray:none;stroke-dashoffset:0;marker:none;visibility:visible;display:inline;overflow:visible;enable-background:accumulate" />
      <path
         d="m 489.3486,101.68422 c 0.44648,-1.62202 1.10892,-3.174903 1.85178,-4.680943 0.16646,-0.23814 0.51625,-0.98112 1.038,-0.38927 0.42364,0.48054 0.20908,2.54829 0.19143,2.85098 -0.0992,1.700613 -0.36944,4.812093 -0.49688,6.353513 -0.60442,7.15565 -1.096,14.32461 -1.272,21.50511 -0.12476,5.09017 -0.0664,6.21145 -0.005,11.21885 0.0491,5.69237 0.74665,11.35825 0.6824,17.05084 0,0 -0.0252,0.002 -0.0252,0.002 l 0,0 c -0.27737,-1.47272 -0.5674,-2.9244 -0.75811,-4.41478 -0.53566,-4.18612 -0.71818,-8.41232 -0.85779,-12.62611 -0.0238,-1.8188 -0.072,-3.63744 -0.0715,-5.45639 0.003,-9.13645 0.58635,-18.25935 1.39178,-27.35665 0.12421,-1.4547 0.40968,-4.67645 0.51662,-6.313843 0.0354,-0.54141 0.0209,-1.08613 0.0755,-1.62594 0.0166,-0.16453 0.0348,-0.3469 0.13724,-0.47675 0.0956,-0.12125 0.26488,-0.27067 0.40949,-0.21654 0.11544,0.0432 -0.1618,0.18598 -0.24271,0.27897 -0.83346,1.41688 -1.50222,2.920183 -2.12587,4.439563 0,0 -0.43916,-0.14282 -0.43916,-0.14282 z"
         id="path2843"
         style="color:#000000;fill:#888a85;fill-opacity:1;fill-rule:nonzero;stroke:#ffffff;stroke-width:4;stroke-linecap:butt;stroke-linejoin:round;stroke-miterlimit:4;stroke-opacity:1;stroke-dasharray:none;stroke-dashoffset:0;marker:none;visibility:visible;display:inline;overflow:visible;enable-background:accumulate" />
      <path
         d="m 461.88091,138.46468 c 6.5256,-3.25787 13.12594,-6.35857 19.75863,-9.39119 6.81343,-3.00719 13.64257,-6.01032 20.6474,-8.55184 1.19316,-0.43291 2.40206,-0.82111 3.60308,-1.23166 0,0 0.01,0.0234 0.01,0.0234 l 0,0 c -1.14308,0.55028 -2.27838,1.11701 -3.42924,1.65084 -6.74867,3.13043 -13.65459,5.91137 -20.40472,9.03916 -6.61766,3.03928 -13.20346,6.14515 -19.72624,9.38393 0,0 -0.45849,-0.92261 -0.45849,-0.92261 z"
         id="path2845"
         style="color:#000000;fill:#888a85;fill-opacity:1;fill-rule:nonzero;stroke:#ffffff;stroke-width:4;stroke-linecap:butt;stroke-linejoin:round;stroke-miterlimit:4;stroke-opacity:1;stroke-dasharray:none;stroke-dashoffset:0;marker:none;visibility:visible;display:inline;overflow:visible;enable-background:accumulate" />
      <path
         d="m 510.55676,132.50673 c 0.37854,4.381 0.64922,8.77075 1.02014,13.15313 0.25371,2.99654 0.59503,5.98453 0.88728,8.97731 0.0649,0.66432 0.31664,3.00024 0.26858,3.84514 -0.0168,0.29476 -0.13494,0.57484 -0.20241,0.86226 0,0 -0.0252,0.002 -0.0252,0.002 l 0,0 c -0.10094,-0.26946 -0.23558,-0.5286 -0.30282,-0.80837 -0.19663,-0.81807 -0.48535,-3.15384 -0.56568,-3.81113 -0.36559,-2.99162 -0.64996,-5.99247 -0.92353,-8.99363 -0.36954,-4.36674 -0.6561,-8.73863 -0.9828,-13.10833 0,0 0.82644,-0.1179 0.82644,-0.1179 z"
         id="path2847"
         style="color:#000000;fill:#888a85;fill-opacity:1;fill-rule:nonzero;stroke:#ffffff;stroke-width:4;stroke-linecap:butt;stroke-linejoin:round;stroke-miterlimit:4;stroke-opacity:1;stroke-dasharray:none;stroke-dashoffset:0;marker:none;visibility:visible;display:inline;overflow:visible;enable-background:accumulate" />
      <path
         d="m 509.51925,106.47509 c -0.13251,-0.67938 -0.37612,-1.3875 -0.23586,-2.08785 0.0326,-0.16267 0.11043,-0.31289 0.16565,-0.46934 0,0 0.0251,-0.002 0.0251,-0.002 l 0,0 c 0.46483,0.73747 0.72361,1.53384 0.87798,2.39195 0,0 -0.83291,0.1676 -0.83291,0.1676 z"
         id="path2849"
         style="color:#000000;fill:#888a85;fill-opacity:1;fill-rule:nonzero;stroke:#ffffff;stroke-width:4;stroke-linecap:butt;stroke-linejoin:round;stroke-miterlimit:4;stroke-opacity:1;stroke-dasharray:none;stroke-dashoffset:0;marker:none;visibility:visible;display:inline;overflow:visible;enable-background:accumulate" />
      <path
         d="m 543.36088,125.71727 c -0.1773,-0.007 -0.35601,-0.0431 -0.5319,-0.0198 -2.33085,0.30888 -4.79185,2.46836 -6.28332,4.10193 -0.77675,0.85076 -1.44175,1.7972 -2.16262,2.6958 -0.64836,1.10434 -1.38382,2.16196 -1.94507,3.31301 -2.21939,4.55168 -3.33323,10.02698 -1.45505,14.90781 0.40388,1.04956 1.08689,1.96912 1.63034,2.95369 0.76454,0.77199 1.43748,1.647 2.29362,2.31597 2.66037,2.07874 5.9174,2.83488 9.21064,3.0726 1.10449,0.0797 2.22121,0.17656 3.32167,0.053 1.06979,-0.12006 2.08966,-0.51843 3.13449,-0.77765 0,0 0.006,0.0245 0.006,0.0245 l 0,0 c -1.80014,0.46188 -4.67394,1.29318 -6.5308,1.37608 -3.44835,0.15396 -7.13468,-0.89277 -9.86254,-3.04341 -0.92493,-0.72922 -1.63876,-1.69219 -2.45815,-2.53829 -0.57607,-1.06713 -1.30074,-2.06654 -1.72823,-3.20139 -1.93506,-5.13708 -0.79145,-10.88162 1.56368,-15.65966 0.5874,-1.1917 1.35862,-2.28363 2.03792,-3.42544 0.75408,-0.93306 1.4473,-1.91878 2.26223,-2.79919 1.20697,-1.30394 2.66931,-2.52733 4.23674,-3.39072 0.89574,-0.49339 1.79874,-0.80913 2.81621,-0.8386 0.26147,-0.008 0.5176,0.076 0.7764,0.11397 0,0 -0.33243,0.76576 -0.33243,0.76576 z"
         id="path2852"
         style="color:#000000;fill:#888a85;fill-opacity:1;fill-rule:nonzero;stroke:#ffffff;stroke-width:4;stroke-linecap:butt;stroke-linejoin:round;stroke-miterlimit:4;stroke-opacity:1;stroke-dasharray:none;stroke-dashoffset:0;marker:none;visibility:visible;display:inline;overflow:visible;enable-background:accumulate" />
      <path
         d="m 576.08867,124.86491 c -0.33739,-0.20275 -0.44428,-0.30614 -0.885,-0.35795 -2.10653,-0.24763 -4.50189,1.27251 -6.24368,2.19335 -2.96706,1.78858 -5.80957,3.81503 -8.33944,6.19134 -1.29236,1.21392 -3.05404,3.01767 -3.86789,4.68125 -0.29594,0.60493 -0.34359,1.30231 -0.51539,1.95347 0.20576,0.5018 0.2652,1.09288 0.61728,1.5054 1.0144,1.18853 3.24673,1.89672 4.56587,2.28085 2.39595,0.69769 5.085,1.09168 7.53335,1.50279 1.24171,0.2085 2.48456,0.41021 3.72685,0.61532 2.1966,0.51958 7.8685,1.08294 7.16335,4.71654 -0.33468,1.72458 -2.01005,3.26626 -3.0493,4.4686 -2.81269,2.73869 -5.81578,5.28609 -8.91687,7.69206 -1.04257,0.80887 -2.12449,1.56583 -3.17667,2.36216 -0.94827,0.7177 -1.88296,1.45316 -2.82444,2.17973 0,0 -0.0165,-0.0191 -0.0165,-0.0191 l 0,0 c 1.24847,-1.21204 4.20802,-4.10205 5.43291,-5.2185 2.85858,-2.60552 5.91616,-4.99424 8.6313,-7.75727 0.58227,-0.65774 3.45856,-3.38446 2.87054,-4.76119 -0.19249,-0.45068 -0.60424,-0.80155 -1.02328,-1.05565 -1.44419,-0.87573 -3.72876,-1.24903 -5.26416,-1.61182 -2.55544,-0.46703 -5.12265,-0.8733 -7.66705,-1.39721 -2.57481,-0.53018 -7.16831,-1.33141 -8.87951,-3.67837 -0.42888,-0.58821 -0.44183,-1.38727 -0.66275,-2.0809 0.21173,-0.75281 0.29069,-1.55638 0.63519,-2.25843 0.84767,-1.72742 2.69176,-3.61466 4.04104,-4.87733 2.5879,-2.42179 5.49152,-4.49718 8.52975,-6.31068 1.97428,-1.00972 5.42435,-3.10786 7.73893,-1.83941 0.1651,0.0905 0.29379,0.23549 0.44069,0.35324 0,0 -0.59508,0.52769 -0.59508,0.52769 z"
         id="path2854"
         style="color:#000000;fill:#888a85;fill-opacity:1;fill-rule:nonzero;stroke:#ffffff;stroke-width:4;stroke-linecap:butt;stroke-linejoin:round;stroke-miterlimit:4;stroke-opacity:1;stroke-dasharray:none;stroke-dashoffset:0;marker:none;visibility:visible;display:inline;overflow:visible;enable-background:accumulate" />
    </g>
    <flowRoot
       transform="translate(10.714286,12.5)"
       style="font-size:40px;font-style:normal;font-weight:normal;line-height:125%;letter-spacing:0px;word-spacing:0px;fill:#473566;fill-opacity:1;stroke:#bdb9bf;font-family:Sans;stroke-opacity:1;stroke-width:4.70000000000000018;stroke-miterlimit:4;stroke-dasharray:none"
       id="flowRoot3907"
       xml:space="preserve"
       inkscape:export-filename="/home/klange/amp_logo_big.png"
       inkscape:export-xdpi="90"
       inkscape:export-ydpi="90"><flowRegion
         id="flowRegion3909"><rect
           style="fill:#473566;fill-opacity:1;stroke:#bdb9bf;stroke-opacity:1;stroke-width:4.70000000000000018;stroke-miterlimit:4;stroke-dasharray:none"
           y="179.86218"
           x="305.35715"
           height="51.42857"
           width="289.28571"
           id="rect3911" /></flowRegion><flowPara
         style="font-size:24px;font-style:normal;font-variant:normal;font-weight:bold;font-stretch:normal;font-family:Bandal;-inkscape-font-specification:Bandal Bold;fill:#473566;fill-opacity:1;stroke:#bdb9bf;stroke-opacity:1;stroke-width:4.70000000000000018;stroke-miterlimit:4;stroke-dasharray:none"
         id="flowPara3913">the social music player</flowPara></flowRoot>    <flowRoot
       xml:space="preserve"
       id="flowRoot3131"
       style="font-size:40px;font-style:normal;font-weight:normal;line-height:125%;letter-spacing:0px;word-spacing:0px;fill:#473566;fill-opacity:1;stroke:none;font-family:Sans"
       transform="translate(10.714286,12.5)"
       inkscape:export-filename="/home/klange/amp_logo_big.png"
       inkscape:export-xdpi="90"
       inkscape:export-ydpi="90"><flowRegion
         id="flowRegion3133"><rect
           id="rect3135"
           width="289.28571"
           height="51.42857"
           x="305.35715"
           y="179.86218"
           style="fill:#473566;fill-opacity:1" /></flowRegion><flowPara
         id="flowPara3137"
         style="font-size:24px;font-style:normal;font-variant:normal;font-weight:bold;font-stretch:normal;font-family:Bandal;-inkscape-font-specification:Bandal Bold;fill:#473566;fill-opacity:1">the social music player</flowPara></flowRoot>  </g>
</svg>
